<?xml version="1.0" standalone="no"?><!DOCTYPE svg PUBLIC "-//W3C//DTD SVG 1.1//EN" "http://www.w3.org/Graphics/SVG/1.1/DTD/svg11.dtd"><svg xmlns:xlink="http://www.w3.org/1999/xlink" xmlns="http://www.w3.org/2000/svg" font-family="Myriad Pro, Helvetica, Arial" font-size="12" data-jsgraph-version="v2.2.36" tabindex="0" width="890" height="425"><defs><clipPath id="_clipplotbb1ef53c-d847-4554-82d3-fb1e7c440ddf" clipPathUnits="userSpaceOnUse"><rect y="0" x="0" width="850" height="315.92432403564453"/></clipPath><marker xmlns="" viewBox="0 0 10 10" id="arrowbb1ef53c-d847-4554-82d3-fb1e7c440ddf" refX="6" refY="5" markerUnits="strokeWidth" markerWidth="8" markerHeight="6" orient="auto"><path xmlns="http://www.w3.org/2000/svg" d="M 0 0 L 10 5 L 0 10 z"/></marker><marker viewBox="0 0 6 8" id="horionzalsplit_bb1ef53c-d847-4554-82d3-fb1e7c440ddf" refX="3" refY="4" markerUnits="strokeWidth" markerWidth="6" markerHeight="8"><line x1="0" y1="8" x2="6" y2="0" stroke="black"/></marker><marker viewBox="0 0 8 6" id="verticalsplit_bb1ef53c-d847-4554-82d3-fb1e7c440ddf" refX="4" refY="3" markerUnits="strokeWidth" markerWidth="8" markerHeight="6"><line x1="0" y1="0" x2="8" y2="6" stroke="black"/></marker><marker viewBox="0 0 10 10" id="verticallinebb1ef53c-d847-4554-82d3-fb1e7c440ddf" refX="0" refY="5" markerUnits="strokeWidth" markerWidth="20" markerHeight="10" orient="auto" stroke-width="1px"><path d="M 0 -10 L 0 10" stroke="black"/></marker></defs><g><rect pointer-events="fill" fill="transparent" y="30" x="20" width="850" height="315.92432403564453"/><text text-anchor="middle" y="20" x="445"/><g transform="translate(20, 30)"><g><g><g><path shape-rendering="crispEdges" stroke="#F0F0F0" stroke-width="1" stroke-opacity="undefined" clip-path="url(#_clipplotbb1ef53c-d847-4554-82d3-fb1e7c440ddf)" d="M 843.146158809479 0 L 843.146158809479 347.92432403564453M 800.9915639328962 0 L 800.9915639328962 347.92432403564453M 779.9142664946052 0 L 779.9142664946052 347.92432403564453M 758.836969056314 0 L 758.836969056314 347.92432403564453M 737.759671618023 0 L 737.759671618023 347.92432403564453M 716.682374179732 0 L 716.682374179732 347.92432403564453M 695.605076741441 0 L 695.605076741441 347.92432403564453M 674.52777930315 0 L 674.52777930315 347.92432403564453M 653.450481864859 0 L 653.450481864859 347.92432403564453M 632.373184426568 0 L 632.373184426568 347.92432403564453M 590.2185895499852 0 L 590.2185895499852 347.92432403564453M 569.1412921116942 0 L 569.1412921116942 347.92432403564453M 548.0639946734032 0 L 548.0639946734032 347.92432403564453M 526.986697235112 0 L 526.986697235112 347.92432403564453M 505.90939979682105 0 L 505.90939979682105 347.92432403564453M 484.83210235853 0 L 484.83210235853 347.92432403564453M 463.754804920239 0 L 463.754804920239 347.92432403564453M 442.677507481948 0 L 442.677507481948 347.92432403564453M 421.60021004365694 0 L 421.60021004365694 347.92432403564453M 379.4456151670742 0 L 379.4456151670742 347.92432403564453M 358.3683177287831 0 L 358.3683177287831 347.92432403564453M 337.29102029049204 0 L 337.29102029049204 347.92432403564453M 316.21372285220104 0 L 316.21372285220104 347.92432403564453M 295.13642541391005 0 L 295.13642541391005 347.92432403564453M 274.05912797561905 0 L 274.05912797561905 347.92432403564453M 252.98183053732794 0 L 252.98183053732794 347.92432403564453M 231.90453309903694 0 L 231.90453309903694 347.92432403564453M 210.82723566074594 0 L 210.82723566074594 347.92432403564453M 168.67264078416315 0 L 168.67264078416315 347.92432403564453M 147.59534334587215 0 L 147.59534334587215 347.92432403564453M 126.51804590758115 0 L 126.51804590758115 347.92432403564453M 105.44074846929004 0 L 105.44074846929004 347.92432403564453M 84.36345103099904 0 L 84.36345103099904 347.92432403564453M 63.28615359270805 0 L 63.28615359270805 347.92432403564453M 42.208856154416935 0 L 42.208856154416935 347.92432403564453M 21.131558716125937 0 L 21.131558716125937 347.92432403564453M 0.05426127783493939 0 L 0.05426127783493939 347.92432403564453"/><path shape-rendering="crispEdges" stroke="#F0F0F0" stroke-width="1" stroke-opacity="undefined" clip-path="url(#_clipplotbb1ef53c-d847-4554-82d3-fb1e7c440ddf)"/></g><g><path shape-rendering="crispEdges" stroke="#DADADA" stroke-width="1" stroke-opacity="undefined" clip-path="url(#_clipplotbb1ef53c-d847-4554-82d3-fb1e7c440ddf)" d="M 822.0688613711872 0 L 822.0688613711872 347.92432403564453M 611.2958869882762 0 L 611.2958869882762 347.92432403564453M 400.5229126053652 0 L 400.5229126053652 347.92432403564453M 189.74993822245426 0 L 189.74993822245426 347.92432403564453"/><path shape-rendering="crispEdges" stroke="#DADADA" stroke-width="1" stroke-opacity="undefined" clip-path="url(#_clipplotbb1ef53c-d847-4554-82d3-fb1e7c440ddf)"/></g></g><g transform="translate(0 315.92432403564453)"><rect pointer-events="fill" fill="transparent"/><g><line y1="0" y2="-2" stroke="black" display="visible" x1="843.146158809479" x2="843.146158809479"/><line y1="0" y2="-2" stroke="black" display="visible" x1="800.9915639328962" x2="800.9915639328962"/><line y1="0" y2="-2" stroke="black" display="visible" x1="779.9142664946052" x2="779.9142664946052"/><line y1="0" y2="-2" stroke="black" display="visible" x1="758.836969056314" x2="758.836969056314"/><line y1="0" y2="-4" stroke="black" display="visible" x1="716.682374179732" x2="716.682374179732"/><line y1="0" y2="-2" stroke="black" display="visible" x1="737.759671618023" x2="737.759671618023"/><line y1="0" y2="-2" stroke="black" display="visible" x1="695.605076741441" x2="695.605076741441"/><line y1="0" y2="-2" stroke="black" display="visible" x1="674.52777930315" x2="674.52777930315"/><line y1="0" y2="-2" stroke="black" display="visible" x1="653.450481864859" x2="653.450481864859"/><line y1="0" y2="-6" stroke="black" display="visible" x1="822.0688613711872" x2="822.0688613711872"/><line y1="0" y2="-2" stroke="black" display="visible" x1="632.373184426568" x2="632.373184426568"/><line y1="0" y2="-2" stroke="black" display="visible" x1="590.2185895499852" x2="590.2185895499852"/><line y1="0" y2="-2" stroke="black" display="visible" x1="569.1412921116942" x2="569.1412921116942"/><line y1="0" y2="-2" stroke="black" display="visible" x1="548.0639946734032" x2="548.0639946734032"/><line y1="0" y2="-4" stroke="black" display="visible" x1="505.90939979682105" x2="505.90939979682105"/><line y1="0" y2="-2" stroke="black" display="visible" x1="526.986697235112" x2="526.986697235112"/><line y1="0" y2="-2" stroke="black" display="visible" x1="484.83210235853" x2="484.83210235853"/><line y1="0" y2="-2" stroke="black" display="visible" x1="463.754804920239" x2="463.754804920239"/><line y1="0" y2="-2" stroke="black" display="visible" x1="442.677507481948" x2="442.677507481948"/><line y1="0" y2="-6" stroke="black" display="visible" x1="611.2958869882762" x2="611.2958869882762"/><line y1="0" y2="-2" stroke="black" display="visible" x1="421.60021004365694" x2="421.60021004365694"/><line y1="0" y2="-2" stroke="black" display="visible" x1="379.4456151670742" x2="379.4456151670742"/><line y1="0" y2="-2" stroke="black" display="visible" x1="358.3683177287831" x2="358.3683177287831"/><line y1="0" y2="-2" stroke="black" display="visible" x1="337.29102029049204" x2="337.29102029049204"/><line y1="0" y2="-4" stroke="black" display="visible" x1="295.13642541391005" x2="295.13642541391005"/><line y1="0" y2="-2" stroke="black" display="visible" x1="316.21372285220104" x2="316.21372285220104"/><line y1="0" y2="-2" stroke="black" display="visible" x1="274.05912797561905" x2="274.05912797561905"/><line y1="0" y2="-2" stroke="black" display="visible" x1="252.98183053732794" x2="252.98183053732794"/><line y1="0" y2="-2" stroke="black" display="visible" x1="231.90453309903694" x2="231.90453309903694"/><line y1="0" y2="-6" stroke="black" display="visible" x1="400.5229126053652" x2="400.5229126053652"/><line y1="0" y2="-2" stroke="black" display="visible" x1="210.82723566074594" x2="210.82723566074594"/><line y1="0" y2="-2" stroke="black" display="visible" x1="168.67264078416315" x2="168.67264078416315"/><line y1="0" y2="-2" stroke="black" display="visible" x1="147.59534334587215" x2="147.59534334587215"/><line y1="0" y2="-2" stroke="black" display="visible" x1="126.51804590758115" x2="126.51804590758115"/><line y1="0" y2="-4" stroke="black" display="visible" x1="84.36345103099904" x2="84.36345103099904"/><line y1="0" y2="-2" stroke="black" display="visible" x1="105.44074846929004" x2="105.44074846929004"/><line y1="0" y2="-2" stroke="black" display="visible" x1="63.28615359270805" x2="63.28615359270805"/><line y1="0" y2="-2" stroke="black" display="visible" x1="42.208856154416935" x2="42.208856154416935"/><line y1="0" y2="-2" stroke="black" display="visible" x1="21.131558716125937" x2="21.131558716125937"/><line y1="0" y2="-6" stroke="black" display="visible" x1="189.74993822245426" x2="189.74993822245426"/><line y1="0" y2="-2" stroke="black" display="visible" x1="0.05426127783493939" x2="0.05426127783493939"/><line y1="0" y2="-2" stroke="black" display="none" x1="200.909090909091" x2="200.909090909091"/><line y1="0" y2="-2" stroke="black" display="none" x1="185.4545454545456" x2="185.4545454545456"/><line y1="0" y2="-2" stroke="black" display="none" x1="170.00000000000023" x2="170.00000000000023"/><line y1="0" y2="-4" stroke="black" display="none" x1="154.54545454545473" x2="154.54545454545473"/><line y1="0" y2="-2" stroke="black" display="none" x1="139.09090909090946" x2="139.09090909090946"/><line y1="0" y2="-2" stroke="black" display="none" x1="123.63636363636408" x2="123.63636363636408"/><line y1="0" y2="-2" stroke="black" display="none" x1="108.18181818181858" x2="108.18181818181858"/><line y1="0" y2="-2" stroke="black" display="none" x1="92.7272727272732" x2="92.7272727272732"/><line y1="0" y2="-6" stroke="black" display="none" x1="231.81818181818176" x2="231.81818181818176"/><line y1="0" y2="-2" stroke="black" display="none" x1="61.81818181818187" x2="61.81818181818187"/><line y1="0" y2="-2" stroke="black" display="none" x1="46.36363636363649" x2="46.36363636363649"/><line y1="0" y2="-2" stroke="black" display="none" x1="30.909090909091105" x2="30.909090909091105"/><line y1="0" y2="-2" stroke="black" display="none" x1="15.45454545454561" x2="15.45454545454561"/><line y1="0" y2="-4" stroke="black" display="none" x1="2.2737367544323206e-13" x2="2.2737367544323206e-13"/><line y1="0" y2="-6" stroke="black" display="none" x1="77.27272727272725" x2="77.27272727272725"/><line y1="0" y2="-2" stroke="black" display="none" x1="166.646655231561" x2="166.646655231561"/><line y1="0" y2="-2" stroke="black" display="none" x1="154.25385934819906" x2="154.25385934819906"/><line y1="0" y2="-2" stroke="black" display="none" x1="141.86106346483723" x2="141.86106346483723"/><line y1="0" y2="-2" stroke="black" display="none" x1="117.07547169811346" x2="117.07547169811346"/><line y1="0" y2="-2" stroke="black" display="none" x1="104.68267581475163" x2="104.68267581475163"/><line y1="0" y2="-4" stroke="black" display="none" x1="5.540308747856216" x2="5.540308747856216"/><line y1="0" y2="-2" stroke="black" display="none" x1="92.2898799313898" x2="92.2898799313898"/><line y1="0" y2="-2" stroke="black" display="none" x1="79.89708404802786" x2="79.89708404802786"/><line y1="0" y2="-2" stroke="black" display="none" x1="55.11149228130364" x2="55.11149228130364"/><line y1="0" y2="-2" stroke="black" display="none" x1="42.71869639794181" x2="42.71869639794181"/><line y1="0" y2="-2" stroke="black" display="none" x1="30.32590051457987" x2="30.32590051457987"/><line y1="0" y2="-2" stroke="black" display="none" x1="17.933104631218043" x2="17.933104631218043"/><line y1="0" y2="-2" stroke="black" display="none" x1="33.355134074558805" x2="33.355134074558805"/><line y1="0" y2="-2" stroke="black" display="none" x1="21.541857423152692" x2="21.541857423152692"/><line y1="0" y2="-4" stroke="black" display="none" x1="5.108940646130918" x2="5.108940646130918"/><line y1="0" y2="-2" stroke="black" display="none" x1="9.728580771746692" x2="9.728580771746692"/><line y1="0" y2="-2" stroke="black" display="none" x1="48.534936138242074" x2="48.534936138242074"/><line y1="0" y2="-2" stroke="black" display="none" x1="37.67843726521437" x2="37.67843726521437"/><line y1="0" y2="-2" stroke="black" display="none" x1="26.821938392186553" x2="26.821938392186553"/><line y1="0" y2="-6" stroke="black" display="none" x1="67.50428816466558" x2="67.50428816466558"/><line y1="0" y2="-2" stroke="black" display="none" x1="15.965439519158735" x2="15.965439519158735"/><line y1="0" y2="-2" stroke="black" display="none" x1="23.68035190615842" x2="23.68035190615842"/><line y1="0" y2="-2" stroke="black" display="none" x1="13.086510263929654" x2="13.086510263929654"/><line y1="0" y2="-2" stroke="black" display="none" x1="2.492668621701" x2="2.492668621701"/><line y1="0" y2="-6" stroke="black" display="none" x1="59.39143501126978" x2="59.39143501126978"/></g><g><text y="8" text-anchor="middle" display="visible" x="822.0688613711872" style="dominant-baseline: hanging;">5.5</text><text y="8" text-anchor="middle" display="visible" x="611.2958869882762" style="dominant-baseline: hanging;">6.0</text><text y="8" text-anchor="middle" display="visible" x="400.5229126053652" style="dominant-baseline: hanging;">6.5</text><text y="8" text-anchor="middle" display="visible" x="189.74993822245426" style="dominant-baseline: hanging;">7.0</text><text y="8" text-anchor="middle" display="none" x="231.81818181818176" style="dominant-baseline: hanging;">8</text><text y="8" text-anchor="middle" display="none" x="77.27272727272725" style="dominant-baseline: hanging;">10</text><text y="8" text-anchor="middle" display="none" x="67.50428816466558" style="dominant-baseline: hanging;">7</text><text y="8" text-anchor="middle" display="none" x="59.39143501126978" style="dominant-baseline: hanging;">2.0</text></g><line stroke="black" shape-rendering="crispEdges" stroke-linecap="square" display="block" x1="850" x2="0" y1="0" y2="0" marker-start="" marker-end=""/><text text-anchor="middle" fill="undefined" style="display: initial;" x="425" y="22"><tspan style="dominant-baseline: hanging;">δ (ppm)</tspan><tspan display="none" style="dominant-baseline: hanging;"/><tspan dx="6" display="none" style="dominant-baseline: hanging;"/><tspan dy="-5" font-size="0.8em" display="none" style="dominant-baseline: hanging;"/></text><g/></g><g display="none"><rect pointer-events="fill" fill="transparent"/><g/><g/><line stroke="black" shape-rendering="crispEdges" stroke-linecap="square" display="none" y1="315.92432403564453" y2="0" x1="0" x2="0" marker-start="" marker-end=""/><text text-anchor="middle"><tspan/><tspan/><tspan dx="6"/><tspan dy="-5" font-size="0.8em"/></text><g/></g></g><g><g data-layer="1"><g><g><g/><g><path stroke="rgba(0,0,0,1)" stroke-width="1" fill="none" d=""/><path stroke="rgba(0,0,0,1)" stroke-width="1" fill="none" d="M 849.8000000000001 302 L 849.8000000000001 302 L 849.6 302 L 849.4000000000001 302 L 849.2 302 L 849 302 L 848.8000000000001 302 L 848.6 302 L 848.4000000000001 302 L 848.2 302 L 848 302 L 847.8000000000001 302 L 847.6 302 L 847.4000000000001 302 L 847.2 302 L 847 302 L 846.8000000000001 302 L 846.6 302 L 846.4000000000001 302 L 846.2 302 L 846 302 L 845.8000000000001 302 L 845.6 302 L 845.4000000000001 302 L 845.2 302 L 845 302 L 844.8000000000001 302 L 844.6 302 L 844.4000000000001 302 L 844.2 302 L 844 302 L 843.8000000000001 302 L 843.6 302 L 843.4000000000001 302 L 843.2 302 L 843 302 L 842.8000000000001 302 L 842.6 302 L 842.4000000000001 302 L 842.2 302 L 842 302 L 841.8000000000001 302 L 841.6 302 L 841.4000000000001 302 L 841.2 302 L 841 302 L 840.8000000000001 302 L 840.6 302 L 840.4000000000001 302 L 840.2 302 L 840 302 L 839.8000000000001 302 L 839.6 302 L 839.4000000000001 302 L 839.2 302 L 839 302 L 838.8000000000001 302 L 838.6 302 L 838.4000000000001 302 L 838.2 302 L 838 302 L 837.8000000000001 302 L 837.6 302 L 837.4000000000001 302 L 837.2 302 L 837 302 L 836.8000000000001 302 L 836.6 302 L 836.4000000000001 302 L 836.2 302 L 836 302 L 835.8000000000001 302 L 835.6 302 L 835.4000000000001 302 L 835.2 302 L 835 302 L 834.8000000000001 302 L 834.6 302 L 834.4000000000001 302 L 834.2 302 L 834 302 L 833.8000000000001 302 L 833.6 302 L 833.4000000000001 302 L 833.2 302 L 833 302 L 832.8000000000001 302 L 832.6 302 L 832.4000000000001 302 L 832.2 302 L 832 302 L 831.8000000000001 302 L 831.6 302 L 831.4000000000001 302 L 831.2 302 L 831 302 L 830.8000000000001 302 L 830.6 302 L 830.4000000000001 302 L 830.2 302 L 830 302 L 829.8000000000001 302 L 829.6 302 L 829.4000000000001 302 L 829.2 302 L 829 302 L 828.8000000000001 302 L 828.6 302 L 828.4000000000001 302 L 828.2 302 L 828 302 L 827.8000000000001 302 L 827.6 302 L 827.4000000000001 302 L 827.2 302 L 827 302 L 826.8000000000001 302 L 826.6 302 L 826.4000000000001 302 L 826.2 302 L 826 302 L 825.8000000000001 302 L 825.6 302 L 825.4000000000001 302 L 825.2 302 L 825 302 L 824.8000000000001 302 L 824.6 302 L 824.4000000000001 302 L 824.2 302 L 824 302 L 823.8000000000001 302 L 823.6 302 L 823.4000000000001 302 L 823.2 302 L 823 302 L 822.8000000000001 302 L 822.6 302 L 822.4000000000001 302 L 822.2 302 L 822 302 L 821.8000000000001 302 L 821.6 302 L 821.4000000000001 302 L 821.2 302 L 821 302 L 820.8000000000001 302 L 820.6 302 L 820.4000000000001 302 L 820.2 302 L 820 302 L 819.8000000000001 302 L 819.6 302 L 819.4000000000001 302 L 819.2 302 L 819 302 L 818.8000000000001 302 L 818.6 302 L 818.4000000000001 302 L 818.2 302 L 818 302 L 817.8000000000001 302 L 817.6 302 L 817.4000000000001 302 L 817.2 302 L 817 302 L 816.8000000000001 302 L 816.6 302 L 816.4000000000001 302 L 816.2 302 L 816 302 L 815.8000000000001 302 L 815.6 302 L 815.4000000000001 302 L 815.2 302 L 815 302 L 814.8000000000001 302 L 814.6 302 L 814.4000000000001 302 L 814.2 302 L 814 302 L 813.8000000000001 302 L 813.6 302 L 813.4000000000001 302 L 813.2 302 L 813 302 L 812.8000000000001 302 L 812.6 302 L 812.4000000000001 302 L 812.2 302 L 812 302 L 811.8000000000001 302 L 811.6 302 L 811.4000000000001 302 L 811.2 302 L 811 302 L 810.8000000000001 302 L 810.6 302 L 810.4000000000001 302 L 810.2 302 L 810 302 L 809.8000000000001 302 L 809.6 302 L 809.4000000000001 302 L 809.2 302 L 809 302 L 808.8000000000001 302 L 808.6 302 L 808.4000000000001 302 L 808.2 302 L 808 302 L 807.8000000000001 302 L 807.6 302 L 807.4000000000001 302 L 807.2 302 L 807 302 L 806.8000000000001 302 L 806.6 302 L 806.4000000000001 302 L 806.2 302 L 806 302 L 805.8000000000001 302 L 805.6 302 L 805.4000000000001 302 L 805.2 302 L 805 302 L 804.8000000000001 302 L 804.6 302 L 804.4000000000001 302 L 804.2 302 L 804 302 L 803.8000000000001 302 L 803.6 302 L 803.4000000000001 302 L 803.2 302 L 803 302 L 802.8000000000001 302 L 802.6 302 L 802.4000000000001 302 L 802.2 302 L 802 302 L 801.8000000000001 302 L 801.6 302 L 801.4000000000001 302 L 801.2 302 L 801 302 L 800.8000000000001 302 L 800.6 302 L 800.4000000000001 302 L 800.2 302 L 800 302 L 799.8000000000001 302 L 799.6 302 L 799.4000000000001 302 L 799.2 302 L 799 302 L 798.8000000000001 302 L 798.6 302 L 798.4000000000001 302 L 798.2 302 L 798 302 L 797.8000000000001 302 L 797.6 302 L 797.4000000000001 302 L 797.2 302 L 797 302 L 796.8000000000001 302 L 796.6 302 L 796.4000000000001 302 L 796.2 302 L 796 302 L 795.8000000000001 302 L 795.6 302 L 795.4000000000001 302 L 795.2 302 L 795 302 L 794.8000000000001 302 L 794.6 302 L 794.4000000000001 302 L 794.2 302 L 794 302 L 793.8000000000001 302 L 793.6 302 L 793.4000000000001 302 L 793.2 302 L 793 302 L 792.8000000000001 302 L 792.6 302 L 792.4000000000001 302 L 792.2 302 L 792 302 L 791.8000000000001 302 L 791.6 302 L 791.4000000000001 302 L 791.2 302 L 791 302 L 790.8000000000001 302 L 790.6 302 L 790.4000000000001 302 L 790.2 302 L 790 302 L 789.8000000000001 302 L 789.6 302 L 789.4000000000001 302 L 789.2 302 L 789 302 L 788.8000000000001 302 L 788.6 302 L 788.4000000000001 302 L 788.2 302 L 788 302 L 787.8000000000001 302 L 787.6 302 L 787.4000000000001 302 L 787.2 302 L 787 302 L 786.8000000000001 302 L 786.6 302 L 786.4000000000001 302 L 786.2 302 L 786 302 L 785.8000000000001 302 L 785.6 302 L 785.4000000000001 302 L 785.2 302 L 785 302 L 784.8000000000001 302 L 784.6 302 L 784.4000000000001 302 L 784.2 302 L 784 302 L 783.8000000000001 302 L 783.6 302 L 783.4000000000001 302 L 783.2 302 L 783 302 L 782.8000000000001 302 L 782.6 302 L 782.4000000000001 302 L 782.2 302 L 782 302 L 781.8000000000001 302 L 781.6 302 L 781.4000000000001 302 L 781.2 302 L 781 302 L 780.8000000000001 302 L 780.6 302 L 780.4000000000001 302 L 780.2 302 L 780 302 L 779.8000000000001 302 L 779.6 302 L 779.4000000000001 302 L 779.2 302 L 779 302 L 778.8000000000001 302 L 778.6 302 L 778.4000000000001 302 L 778.2 302 L 778 302 L 777.8000000000001 302 L 777.6 302 L 777.4000000000001 302 L 777.2 302 L 777 302 L 776.8000000000001 302 L 776.6 302 L 776.4000000000001 302 L 776.2 302 L 776 302 L 775.8000000000001 302 L 775.6 302 L 775.4000000000001 302 L 775.2 302 L 775 302 L 774.8000000000001 302 L 774.6 302 L 774.4000000000001 302 L 774.2 302 L 774 302 L 773.8000000000001 302 L 773.6 302 L 773.4000000000001 302 L 773.2 302 L 773 302 L 772.8000000000001 302 L 772.6 302 L 772.4000000000001 302 L 772.2 302 L 772 302 L 771.8000000000001 302 L 771.6 302 L 771.4000000000001 302 L 771.2 302 L 771 302 L 770.8000000000001 302 L 770.6 302 L 770.4000000000001 302 L 770.2 302 L 770 302 L 769.8000000000001 302 L 769.6 302 L 769.4000000000001 302 L 769.2 302 L 769 302 L 768.8000000000001 302 L 768.6 302 L 768.4000000000001 302 L 768.2 302 L 768 302 L 767.8000000000001 302 L 767.6 302 L 767.4000000000001 302 L 767.2 302 L 767 302 L 766.8000000000001 302 L 766.6 302 L 766.4000000000001 302 L 766.2 302 L 766 302 L 765.8000000000001 302 L 765.6 302 L 765.4000000000001 302 L 765.2 302 L 765 302 L 764.8000000000001 302 L 764.6 302 L 764.4000000000001 302 L 764.2 302 L 764 302 L 763.8000000000001 302 L 763.6 302 L 763.4000000000001 302 L 763.2 302 L 763 302 L 762.8000000000001 302 L 762.6 302 L 762.4000000000001 302 L 762.2 302 L 762 302 L 761.8000000000001 302 L 761.6 302 L 761.4000000000001 302 L 761.2 302 L 761 302 L 760.8000000000001 302 L 760.6 302 L 760.4000000000001 302 L 760.2 302 L 760 302 L 759.8000000000001 302 L 759.6 302 L 759.4000000000001 302 L 759.2 302 L 759 302 L 758.8000000000001 302 L 758.6 302 L 758.4000000000001 302 L 758.2 302 L 758 302 L 757.8000000000001 302 L 757.6 302 L 757.4000000000001 302 L 757.2 302 L 757 302 L 756.8000000000001 302 L 756.6 302 L 756.4000000000001 302 L 756.2 302 L 756 302 L 755.8000000000001 302 L 755.6 302 L 755.4000000000001 302 L 755.2 302 L 755 302 L 754.8000000000001 302 L 754.6 302 L 754.4000000000001 302 L 754.2 302 L 754 302 L 753.8000000000001 302 L 753.6 302 L 753.4000000000001 302 L 753.2 302 L 753 302 L 752.8000000000001 302 L 752.6 302 L 752.4000000000001 302 L 752.2 302 L 752 302 L 751.8000000000001 302 L 751.6 302 L 751.4000000000001 302 L 751.2 302 L 751 302 L 750.8000000000001 302 L 750.6 302 L 750.4000000000001 302 L 750.2 302 L 750 302 L 749.8000000000001 302 L 749.6 302 L 749.4000000000001 302 L 749.2 302 L 749 302 L 748.8000000000001 302 L 748.6 302 L 748.4000000000001 302 L 748.2 302 L 748 302 L 747.8000000000001 302 L 747.6 302 L 747.4000000000001 302 L 747.2 302 L 747 302 L 746.8000000000001 302 L 746.6 302 L 746.4000000000001 302 L 746.2 302 L 746 302 L 745.8000000000001 302 L 745.6 302 L 745.4000000000001 302 L 745.2 302 L 745 302 L 744.8000000000001 302 L 744.6 302 L 744.4000000000001 302 L 744.2 302 L 744 302 L 743.8000000000001 302 L 743.6 302 L 743.4000000000001 302 L 743.2 302 L 743 302 L 742.8000000000001 302 L 742.6 302 L 742.4000000000001 302 L 742.2 302 L 742 302 L 741.8000000000001 302 L 741.6 302 L 741.4000000000001 302 L 741.2 302 L 741 302 L 740.8000000000001 302 L 740.6 302 L 740.4000000000001 302 L 740.2 302 L 740 302 L 739.8000000000001 302 L 739.6 302 L 739.4000000000001 302 L 739.2 302 L 739 302 L 738.8000000000001 302 L 738.6 302 L 738.4000000000001 302 L 738.2 302 L 738 302 L 737.8000000000001 302 L 737.6 302 L 737.4000000000001 302 L 737.2 302 L 737 302 L 736.8000000000001 302 L 736.6 302 L 736.4000000000001 302 L 736.2 302 L 736 302 L 735.8000000000001 302 L 735.6 302 L 735.4000000000001 302 L 735.2 302 L 735 302 L 734.8000000000001 302 L 734.6 302 L 734.4000000000001 302 L 734.2 302 L 734 302 L 733.8000000000001 302 L 733.6 302 L 733.4000000000001 302 L 733.2 302 L 733 302 L 732.8000000000001 302 L 732.6 302 L 732.4000000000001 302 L 732.2 302 L 732 302 L 731.8000000000001 302 L 731.6 302 L 731.4000000000001 302 L 731.2 302 L 731 302 L 730.8000000000001 302 L 730.6 302 L 730.4000000000001 302 L 730.2 302 L 730 302 L 729.8000000000001 302 L 729.6 302 L 729.4000000000001 302 L 729.2 302 L 729 302 L 728.8000000000001 302 L 728.6 302 L 728.4000000000001 302 L 728.2 302 L 728 302 L 727.8000000000001 302 L 727.6 302 L 727.4000000000001 302 L 727.2 302 L 727 302 L 726.8000000000001 302 L 726.6 302 L 726.4000000000001 302 L 726.2 302 L 726 302 L 725.8000000000001 302 L 725.6 302 L 725.4000000000001 302 L 725.2 302 L 725 302 L 724.8000000000001 302 L 724.6 302 L 724.4000000000001 302 L 724.2 302 L 724 302 L 723.8000000000001 302 L 723.6 302 L 723.4000000000001 302 L 723.2 302 L 723 302 L 722.8000000000001 302 L 722.6 302 L 722.4000000000001 302 L 722.2 302 L 722 302 L 721.8000000000001 302 L 721.6 302 L 721.4000000000001 302 L 721.2 302 L 721 302 L 720.8000000000001 302 L 720.6 302 L 720.4000000000001 302 L 720.2 302 L 720 302 L 719.8000000000001 302 L 719.6 302 L 719.4000000000001 302 L 719.2 302 L 719 302 L 718.8000000000001 302 L 718.6 302 L 718.4000000000001 302 L 718.2 302 L 718 302 L 717.8000000000001 302 L 717.6 302 L 717.4000000000001 302 L 717.2 302 L 717 302 L 716.8000000000001 302 L 716.6 302 L 716.4000000000001 302 L 716.2 302 L 716 302 L 715.8000000000001 302 L 715.6 302 L 715.4000000000001 302 L 715.2 302 L 715 302 L 714.8000000000001 302 L 714.6 302 L 714.4000000000001 302 L 714.2 302 L 714 302 L 713.8000000000001 302 L 713.6 302 L 713.4000000000001 302 L 713.2 302 L 713 302 L 712.8000000000001 302 L 712.6 302 L 712.4000000000001 302 L 712.2 302 L 712 302 L 711.8000000000001 302 L 711.6 302 L 711.4000000000001 302 L 711.2 302 L 711 302 L 710.8000000000001 302 L 710.6 302 L 710.4000000000001 302 L 710.2 302 L 710 302 L 709.8000000000001 302 L 709.6 302 L 709.4000000000001 302 L 709.2 302 L 709 302 L 708.8000000000001 302 L 708.6 302 L 708.4000000000001 302 L 708.2 302 L 708 302 L 707.8000000000001 302 L 707.6 302 L 707.4000000000001 302 L 707.2 302 L 707 302 L 706.8000000000001 302 L 706.6 302 L 706.4000000000001 302 L 706.2 302 L 706 302 L 705.8000000000001 302 L 705.6 302 L 705.4000000000001 302 L 705.2 302 L 705 302 L 704.8000000000001 302 L 704.6 302 L 704.4000000000001 302 L 704.2 302 L 704 302 L 703.8000000000001 302 L 703.6 302 L 703.4000000000001 302 L 703.2 302 L 703 302 L 702.8000000000001 302 L 702.6 302 L 702.4000000000001 302 L 702.2 302 L 702 302 L 701.8000000000001 302 L 701.6 302 L 701.4000000000001 302 L 701.2 302 L 701 302 L 700.8000000000001 302 L 700.6 302 L 700.4000000000001 302 L 700.2 302 L 700 302 L 699.8000000000001 302 L 699.6 302 L 699.4000000000001 302 L 699.2 302 L 699 302 L 698.8000000000001 302 L 698.6 302 L 698.4000000000001 302 L 698.2 302 L 698 302 L 697.8000000000001 302 L 697.6 302 L 697.4000000000001 302 L 697.2 302 L 697 302 L 696.8000000000001 302 L 696.6 302 L 696.4000000000001 302 L 696.2 302 L 696 302 L 695.8000000000001 302 L 695.6 302 L 695.4000000000001 302 L 695.2 302 L 695 302 L 694.8000000000001 302 L 694.6 302 L 694.4000000000001 302 L 694.2 302 L 694 302 L 693.8000000000001 302 L 693.6 302 L 693.4000000000001 302 L 693.2 302 L 693 302 L 692.8000000000001 302 L 692.6 302 L 692.4000000000001 302 L 692.2 302 L 692 302 L 691.8000000000001 302 L 691.6 302 L 691.4000000000001 302 L 691.2 302 L 691 302 L 690.8000000000001 302 L 690.6 302 L 690.4000000000001 302 L 690.2 302 L 690 302 L 689.8000000000001 302 L 689.6 302 L 689.4000000000001 302 L 689.2 302 L 689 302 L 688.8000000000001 302 L 688.6 302 L 688.4000000000001 302 L 688.2 302 L 688 302 L 687.8000000000001 302 L 687.6 302 L 687.4000000000001 302 L 687.2 302 L 687 302 L 686.8000000000001 302 L 686.6 302 L 686.4000000000001 302 L 686.2 302 L 686 302 L 685.8000000000001 302 L 685.6 302 L 685.4000000000001 302 L 685.2 302 L 685 302 L 684.8000000000001 302 L 684.6 302 L 684.4000000000001 302 L 684.2 302 L 684 302 L 683.8000000000001 302 L 683.6 302 L 683.4000000000001 302 L 683.2 302 L 683 302 L 682.8000000000001 302 L 682.6 302 L 682.4000000000001 302 L 682.2 302 L 682 302 L 681.8000000000001 302 L 681.6 302 L 681.4000000000001 302 L 681.2 302 L 681 302 L 680.8000000000001 302 L 680.6 302 L 680.4000000000001 302 L 680.2 302 L 680 302 L 679.8000000000001 302 L 679.6 302 L 679.4000000000001 302 L 679.2 302 L 679 302 L 678.8000000000001 302 L 678.6 302 L 678.4000000000001 302 L 678.2 302 L 678 302 L 677.8000000000001 302 L 677.6 302 L 677.4000000000001 302 L 677.2 302 L 677 302 L 676.8000000000001 302 L 676.6 302 L 676.4000000000001 302 L 676.2 302 L 676 302 L 675.8000000000001 302 L 675.6 302 L 675.4000000000001 302 L 675.2 302 L 675 302 L 674.8000000000001 302 L 674.6 302 L 674.4000000000001 302 L 674.2 302 L 674 302 L 673.8000000000001 302 L 673.6 302 L 673.4000000000001 302 L 673.2 302 L 673 302 L 672.8000000000001 302 L 672.6 302 L 672.4000000000001 302 L 672.2 302 L 672 302 L 671.8000000000001 302 L 671.6 302 L 671.4000000000001 302 L 671.2 302 L 671 302 L 670.8000000000001 302 L 670.6 302 L 670.4000000000001 302 L 670.2 302 L 670 302 L 669.8000000000001 302 L 669.6 302 L 669.4000000000001 302 L 669.2 302 L 669 302 L 668.8000000000001 302 L 668.6 302 L 668.4000000000001 302 L 668.2 302 L 668 302 L 667.8000000000001 302 L 667.6 302 L 667.4000000000001 302 L 667.2 302 L 667 302 L 666.8000000000001 302 L 666.6 302 L 666.4000000000001 302 L 666.2 302 L 666 302 L 665.8000000000001 302 L 665.6 302 L 665.4000000000001 302 L 665.2 302 L 665 302 L 664.8000000000001 302 L 664.6 302 L 664.4000000000001 302 L 664.2 302 L 664 302 L 663.8000000000001 302 L 663.6 302 L 663.4000000000001 302 L 663.2 302 L 663 302 L 662.8000000000001 302 L 662.6 302 L 662.4000000000001 302 L 662.2 302 L 662 302 L 661.8000000000001 302 L 661.6 302 L 661.4000000000001 302 L 661.2 302 L 661 302 L 660.8000000000001 302 L 660.6 302 L 660.4000000000001 302 L 660.2 302 L 660 302 L 659.8000000000001 302 L 659.6 302 L 659.4000000000001 302 L 659.2 302 L 659 302 L 658.8000000000001 302 L 658.6 302 L 658.4000000000001 302 L 658.2 302 L 658 302 L 657.8000000000001 302 L 657.6 302 L 657.4000000000001 302 L 657.2 302 L 657 302 L 656.8000000000001 302 L 656.6 302 L 656.4000000000001 302 L 656.2 302 L 656 302 L 655.8000000000001 302 L 655.6 302 L 655.4000000000001 302 L 655.2 302 L 655 302 L 654.8000000000001 302 L 654.6 302 L 654.4000000000001 302 L 654.2 302 L 654 302 L 653.8000000000001 302 L 653.6 302 L 653.4000000000001 302 L 653.2 302 L 653 302 L 652.8000000000001 302 L 652.6 302 L 652.4000000000001 302 L 652.2 302 L 652 302 L 651.8000000000001 302 L 651.6 302 L 651.4000000000001 302 L 651.2 302 L 651 302 L 650.8000000000001 302 L 650.6 302 L 650.4000000000001 302 L 650.2 302 L 650 302 L 649.8000000000001 302 L 649.6 302 L 649.4000000000001 302 L 649.2 302 L 649 302 L 648.8000000000001 302 L 648.6 302 L 648.4000000000001 302 L 648.2 302 L 648 302 L 647.8000000000001 302 L 647.6 302 L 647.4000000000001 302 L 647.2 302 L 647 302 L 646.8000000000001 302 L 646.6 302 L 646.4000000000001 302 L 646.2 302 L 646 302 L 645.8000000000001 302 L 645.6 302 L 645.4000000000001 302 L 645.2 302 L 645 302 L 644.8000000000001 302 L 644.6 302 L 644.4000000000001 302 L 644.2 302 L 644 302 L 643.8000000000001 302 L 643.6 302 L 643.4000000000001 302 L 643.2 302 L 643 302 L 642.8000000000001 302 L 642.6 302 L 642.4000000000001 302 L 642.2 302 L 642 302 L 641.8000000000001 302 L 641.6 302 L 641.4000000000001 302 L 641.2 302 L 641 302 L 640.8000000000001 302 L 640.6 302 L 640.4000000000001 302 L 640.2 302 L 640 302 L 639.8000000000001 302 L 639.6 302 L 639.4000000000001 302 L 639.2 302 L 639 302 L 638.8000000000001 302 L 638.6 302 L 638.4000000000001 302 L 638.2 302 L 638 302 L 637.8000000000001 302 L 637.6 302 L 637.4000000000001 302 L 637.2 302 L 637 302 L 636.8000000000001 302 L 636.6 302 L 636.4000000000001 302 L 636.2 302 L 636 302 L 635.8000000000001 302 L 635.6 302 L 635.4000000000001 302 L 635.2 302 L 635 302 L 634.8000000000001 302 L 634.6 302 L 634.4000000000001 302 L 634.2 302 L 634 302 L 633.8000000000001 302 L 633.6 302 L 633.4000000000001 302 L 633.2 302 L 633 302 L 632.8000000000001 302 L 632.6 302 L 632.4000000000001 302 L 632.2 302 L 632 302 L 631.8000000000001 302 L 631.6 302 L 631.4000000000001 302 L 631.2 302 L 631 302 L 630.8000000000001 302 L 630.6 302 L 630.4000000000001 302 L 630.2 302 L 630 302 L 629.8000000000001 302 L 629.6 302 L 629.4000000000001 302 L 629.2 302 L 629 302 L 628.8000000000001 302 L 628.6 302 L 628.4000000000001 302 L 628.2 302 L 628 302 L 627.8000000000001 302 L 627.6 302 L 627.4000000000001 302 L 627.2 302 L 627 302 L 626.8000000000001 302 L 626.6 302 L 626.4000000000001 302 L 626.2 302 L 626 302 L 625.8000000000001 302 L 625.6 302 L 625.4000000000001 302 L 625.2 302 L 625 302 L 625 301.8 L 624.8000000000001 301.8 L 624.6 301.8 L 624.4000000000001 301.6 L 624.4000000000001 301.40000000000003 L 624.2 301.40000000000003 L 624 301 L 624 300.8 L 623.8000000000001 300.40000000000003 L 623.6 300 L 623.4000000000001 299.6 L 623.4000000000001 298.8 L 623.2 298.2 L 623 297.2 L 623 296 L 622.8000000000001 294.8 L 622.6 293.2 L 622.6 291.40000000000003 L 622.4000000000001 289.40000000000003 L 622.2 287 L 622 284.40000000000003 L 622 281.2 L 621.8000000000001 277.8 L 621.6 274 L 621.6 269.8 L 621.4000000000001 265.2 L 621.2 260.2 L 621 254.60000000000002 L 621 248.8 L 620.8000000000001 242.8 L 620.6 236.20000000000002 L 620.6 229.60000000000002 L 620.4000000000001 222.60000000000002 L 620.2 215.60000000000002 L 620 208.60000000000002 L 620 201.60000000000002 L 619.8000000000001 194.8 L 619.6 188.20000000000002 L 619.6 182 L 619.4000000000001 176.20000000000002 L 619.2 170.8 L 619.2 166.20000000000002 L 619 162.20000000000002 L 618.8000000000001 159 L 618.6 156.60000000000002 L 618.6 155.20000000000002 L 618.4000000000001 154.60000000000002 L 618.2 155 L 618.2 156.20000000000002 L 618 158.4 L 617.8000000000001 161.20000000000002 L 617.6 165 L 617.6 169.60000000000002 L 617.4000000000001 174.60000000000002 L 617.2 180.4 L 617.2 186.60000000000002 L 617 193 L 616.8000000000001 199.8 L 616.8000000000001 206.8 L 616.6 213.8 L 616.4000000000001 220.8 L 616.2 227.8 L 616.2 234.60000000000002 L 616 241 L 615.8000000000001 247.20000000000002 L 615.8000000000001 253.20000000000002 L 615.6 258.8 L 615.4000000000001 263.8 L 615.2 268.6 L 615.2 273 L 615 276.8 L 614.8000000000001 280.40000000000003 L 614.8000000000001 283.6 L 614.6 286.40000000000003 L 614.4000000000001 288.8 L 614.2 291 L 614.2 292.8 L 614 294.40000000000003 L 613.8000000000001 295.8 L 613.8000000000001 297 L 613.6 297.8 L 613.4 298.6 L 613.4 299.40000000000003 L 613.2 300 L 613 300.40000000000003 L 612.8000000000001 300.8 L 612.8000000000001 301 L 612.6 301.2 L 612.4 301.40000000000003 L 612.4 301.6 L 612.2 301.8 L 612 301.8 L 611.8000000000001 301.8 L 611.8000000000001 302 L 611.6 302 L 611.4 302 L 611.2 302 L 611 302 L 610.8000000000001 302 L 610.6 302 L 610.4 302 L 610.2 302 L 610 302 L 609.8000000000001 302 L 609.6 302 L 609.4 302 L 609.2 302 L 609 302 L 608.8000000000001 302 L 608.6 302 L 608.4 302 L 608.2 302 L 608 302 L 607.8000000000001 302 L 607.6 302 L 607.4 302 L 607.2 302 L 607 302 L 606.8000000000001 302 L 606.6 302 L 606.4 302 L 606.2 302 L 606 302 L 605.8000000000001 302 L 605.6 302 L 605.4 302 L 605.2 302 L 605 302 L 604.8000000000001 302 L 604.6 302 L 604.4 302 L 604.2 302 L 604 302 L 603.8000000000001 302 L 603.6 302 L 603.4 302 L 603.2 302 L 603 302 L 602.8000000000001 302 L 602.6 302 L 602.4 302 L 602.2 302 L 602 302 L 601.8000000000001 302 L 601.6 302 L 601.4 302 L 601.2 302 L 601 302 L 600.8000000000001 302 L 600.6 302 L 600.4 302 L 600.2 302 L 600 302 L 599.8000000000001 302 L 599.6 302 L 599.4 302 L 599.2 302 L 599 302 L 598.8000000000001 302 L 598.6 302 L 598.4 302 L 598.2 302 L 598 302 L 597.8000000000001 302 L 597.6 302 L 597.4 302 L 597.2 302 L 597 302 L 596.8000000000001 302 L 596.6 302 L 596.4 302 L 596.2 302 L 596 302 L 595.8000000000001 302 L 595.6 302 L 595.4 302 L 595.2 302 L 595 302 L 594.8000000000001 302 L 594.6 302 L 594.4 302 L 594.2 302 L 594 302 L 593.8000000000001 302 L 593.6 302 L 593.4 302 L 593.2 302 L 593 302 L 592.8000000000001 302 L 592.6 302 L 592.4 302 L 592.2 302 L 592 302 L 591.8000000000001 302 L 591.6 302 L 591.4 302 L 591.2 302 L 591 302 L 590.8000000000001 302 L 590.6 302 L 590.4 302 L 590.2 302 L 590 302 L 589.8000000000001 302 L 589.6 302 L 589.4 302 L 589.2 302 L 589 302 L 588.8000000000001 302 L 588.6 302 L 588.4 302 L 588.2 302 L 588 302 L 587.8000000000001 302 L 587.6 302 L 587.4 302 L 587.2 302 L 587 302 L 586.8000000000001 302 L 586.6 302 L 586.4 302 L 586.2 302 L 586 302 L 585.8000000000001 302 L 585.6 302 L 585.4 302 L 585.2 302 L 585 302 L 584.8000000000001 302 L 584.6 302 L 584.4 302 L 584.2 302 L 584 302 L 583.8000000000001 302 L 583.6 302 L 583.4 302 L 583.2 302 L 583 302 L 582.8000000000001 302 L 582.6 302 L 582.4 302 L 582.2 302 L 582 302 L 581.8000000000001 302 L 581.6 302 L 581.4 302 L 581.2 302 L 581 302 L 580.8000000000001 302 L 580.6 302 L 580.4 302 L 580.2 302 L 580 302 L 579.8000000000001 302 L 579.6 302 L 579.4 302 L 579.2 302 L 579 302 L 578.8000000000001 302 L 578.6 302 L 578.4 302 L 578.2 302 L 578 302 L 577.8000000000001 302 L 577.6 302 L 577.4 302 L 577.2 302 L 577 302 L 576.8000000000001 302 L 576.6 302 L 576.4 302 L 576.2 302 L 576 302 L 575.8000000000001 302 L 575.6 302 L 575.4 302 L 575.2 302 L 575 302 L 574.8000000000001 302 L 574.6 302 L 574.4 302 L 574.2 302 L 574 302 L 573.8000000000001 302 L 573.6 302 L 573.4 302 L 573.2 302 L 573 302 L 572.8000000000001 302 L 572.6 302 L 572.4 302 L 572.2 302 L 572 302 L 571.8000000000001 302 L 571.6 302 L 571.4 302 L 571.2 302 L 571 302 L 570.8000000000001 302 L 570.6 302 L 570.4 302 L 570.2 302 L 570 302 L 569.8000000000001 302 L 569.6 302 L 569.4 302 L 569.2 302 L 569 302 L 568.8000000000001 302 L 568.6 302 L 568.4 302 L 568.2 302 L 568 302 L 567.8000000000001 302 L 567.6 302 L 567.4 302 L 567.2 302 L 567 302 L 566.8000000000001 302 L 566.6 302 L 566.4 302 L 566.2 302 L 566 302 L 565.8000000000001 302 L 565.6 302 L 565.4 302 L 565.2 302 L 565 302 L 564.8000000000001 302 L 564.6 302 L 564.4 302 L 564.2 302 L 564 302 L 563.8000000000001 302 L 563.6 302 L 563.4 302 L 563.2 302 L 563 302 L 562.8000000000001 302 L 562.6 302 L 562.4 302 L 562.2 302 L 562 302 L 561.8000000000001 302 L 561.6 302 L 561.4 302 L 561.2 302 L 561 302 L 560.8000000000001 302 L 560.6 302 L 560.4 302 L 560.2 302 L 560 302 L 559.8000000000001 302 L 559.6 302 L 559.4 302 L 559.2 302 L 559 302 L 558.8000000000001 302 L 558.6 301.8 L 558.4 301.8 L 558.2 301.6 L 558.2 301.40000000000003 L 558 301.40000000000003 L 557.8000000000001 301 L 557.6 300.8 L 557.6 300.40000000000003 L 557.4 300 L 557.2 299.40000000000003 L 557.2 298.8 L 557 298 L 556.8000000000001 297 L 556.6 295.6 L 556.6 294.2 L 556.4 292.6 L 556.2 290.6 L 556.2 288.2 L 556 285.40000000000003 L 555.8000000000001 282.2 L 555.8000000000001 278.8 L 555.6 274.6 L 555.4 270 L 555.2 265 L 555.2 259.2 L 555 253 L 554.8000000000001 246.20000000000002 L 554.8000000000001 238.8 L 554.6 231 L 554.4 222.60000000000002 L 554.2 213.8 L 554.2 204.60000000000002 L 554 195.20000000000002 L 553.8000000000001 185.60000000000002 L 553.8000000000001 175.8 L 553.6 166.20000000000002 L 553.4 156.60000000000002 L 553.4 147.4 L 553.2 138.6 L 553 130.20000000000002 L 552.8000000000001 122.60000000000001 L 552.8000000000001 116 L 552.6 110.2 L 552.4 105.4 L 552.4 101.60000000000001 L 552.2 99.2 L 552 98 L 551.8000000000001 98 L 551.8000000000001 99.2 L 551.6 101.80000000000001 L 551.4 105.4 L 551.4 110.4 L 551.2 116.2 L 551 123 L 550.8000000000001 130.6 L 550.8000000000001 138.8 L 550.6 147.8 L 550.4 157 L 550.4 166.60000000000002 L 550.2 176.20000000000002 L 550 186 L 550 195.60000000000002 L 549.8000000000001 205 L 549.6 214.20000000000002 L 549.4 223 L 549.4 231.4 L 549.2 239.20000000000002 L 549 246.60000000000002 L 549 253.20000000000002 L 548.8000000000001 259.40000000000003 L 548.6 265.2 L 548.4 270.2 L 548.4 274.8 L 548.2 278.8 L 548 282.40000000000003 L 548 285.6 L 547.8000000000001 288.2 L 547.6 290.6 L 547.6 292.6 L 547.4 294.40000000000003 L 547.2 295.8 L 547 297 L 547 298 L 546.8000000000001 298.8 L 546.6 299.40000000000003 L 546.6 300 L 546.4 300.40000000000003 L 546.2 300.8 L 546 301 L 546 301.40000000000003 L 545.8000000000001 301.6 L 545.6 301.6 L 545.6 301.8 L 545.4 301.8 L 545.2 301.8 L 545 302 L 544.8000000000001 302 L 544.6 302 L 544.4 302 L 544.2 302 L 544 302 L 543.8000000000001 302 L 543.6 302 L 543.4 302 L 543.2 302 L 543 302 L 542.8000000000001 302 L 542.6 302 L 542.4 302 L 542.2 302 L 542 302 L 541.8000000000001 302 L 541.6 302 L 541.4 302 L 541.2 302 L 541 302 L 540.8000000000001 302 L 540.6 302 L 540.4 302 L 540.2 302 L 540 302 L 539.8000000000001 302 L 539.6 302 L 539.4 302 L 539.2 302 L 539 302 L 538.8000000000001 302 L 538.6 302 L 538.4 302 L 538.2 302 L 538 302 L 537.8000000000001 302 L 537.6 302 L 537.4 302 L 537.2 302 L 537 302 L 536.8000000000001 302 L 536.6 302 L 536.4 302 L 536.2 302 L 536 302 L 535.8000000000001 302 L 535.6 302 L 535.4 302 L 535.2 302 L 535 302 L 534.8000000000001 302 L 534.6 302 L 534.4 302 L 534.2 302 L 534 302 L 533.8000000000001 302 L 533.6 302 L 533.4 302 L 533.2 302 L 533 302 L 532.8000000000001 302 L 532.6 302 L 532.4 302 L 532.2 302 L 532 302 L 531.8000000000001 302 L 531.6 302 L 531.4 302 L 531.2 302 L 531 302 L 530.8000000000001 302 L 530.6 302 L 530.4 302 L 530.2 302 L 530 302 L 529.8000000000001 302 L 529.6 302 L 529.4 302 L 529.2 302 L 529 302 L 528.8000000000001 302 L 528.6 302 L 528.4 302 L 528.2 302 L 528 302 L 527.8000000000001 302 L 527.6 302 L 527.4 302 L 527.2 302 L 527 302 L 526.8000000000001 302 L 526.6 302 L 526.4 302 L 526.2 302 L 526 302 L 525.8000000000001 302 L 525.6 302 L 525.4 302 L 525.2 302 L 525 302 L 524.8000000000001 302 L 524.6 302 L 524.4 302 L 524.2 302 L 524 302 L 523.8000000000001 302 L 523.6 302 L 523.4 302 L 523.2 302 L 523 302 L 522.8000000000001 302 L 522.6 302 L 522.4 302 L 522.2 302 L 522 302 L 521.8000000000001 302 L 521.6 302 L 521.4 302 L 521.2 302 L 521 302 L 520.8000000000001 302 L 520.6 302 L 520.4 302 L 520.2 302 L 520 302 L 519.8000000000001 302 L 519.6 302 L 519.4 302 L 519.2 302 L 519 302 L 518.8000000000001 302 L 518.6 302 L 518.4 302 L 518.2 302 L 518 302 L 517.8000000000001 302 L 517.6 302 L 517.4 302 L 517.2 302 L 517 302 L 516.8000000000001 302 L 516.6 302 L 516.4 302 L 516.2 302 L 516 302 L 515.8000000000001 302 L 515.6 302 L 515.4 302 L 515.2 302 L 515 302 L 514.8000000000001 302 L 514.6 302 L 514.4 302 L 514.2 302 L 514 302 L 513.8000000000001 302 L 513.6 302 L 513.4 302 L 513.2 302 L 513 302 L 512.8000000000001 302 L 512.6 302 L 512.4 302 L 512.2 302 L 512 302 L 511.8 302 L 511.6 302 L 511.40000000000003 302 L 511.20000000000005 302 L 511 302 L 510.8 302 L 510.6 302 L 510.40000000000003 302 L 510.20000000000005 302 L 510 302 L 509.8 302 L 509.6 302 L 509.40000000000003 302 L 509.20000000000005 302 L 509 302 L 508.8 302 L 508.6 302 L 508.40000000000003 302 L 508.20000000000005 302 L 508 302 L 507.8 302 L 507.6 302 L 507.40000000000003 302 L 507.20000000000005 302 L 507 302 L 506.8 302 L 506.6 302 L 506.40000000000003 302 L 506.20000000000005 302 L 506 302 L 505.8 302 L 505.6 302 L 505.40000000000003 302 L 505.20000000000005 302 L 505 302 L 504.8 302 L 504.6 302 L 504.40000000000003 302 L 504.20000000000005 302 L 504 302 L 503.8 302 L 503.6 302 L 503.40000000000003 302 L 503.20000000000005 302 L 503 302 L 502.8 302 L 502.6 302 L 502.40000000000003 302 L 502.20000000000005 302 L 502 302 L 501.8 302 L 501.6 302 L 501.40000000000003 302 L 501.20000000000005 302 L 501 302 L 500.8 302 L 500.6 302 L 500.40000000000003 302 L 500.20000000000005 302 L 500 302 L 499.8 302 L 499.6 302 L 499.40000000000003 302 L 499.20000000000005 302 L 499 302 L 498.8 302 L 498.6 302 L 498.40000000000003 302 L 498.20000000000005 302 L 498 302 L 497.8 302 L 497.6 302 L 497.40000000000003 302 L 497.20000000000005 302 L 497 302 L 496.8 302 L 496.6 302 L 496.40000000000003 302 L 496.20000000000005 302 L 496 302 L 495.8 302 L 495.6 302 L 495.40000000000003 302 L 495.20000000000005 302 L 495 302 L 494.8 302 L 494.6 302 L 494.40000000000003 302 L 494.20000000000005 302 L 494 302 L 493.8 302 L 493.6 302 L 493.40000000000003 302 L 493.20000000000005 302 L 493 302 L 492.8 302 L 492.6 302 L 492.40000000000003 302 L 492.20000000000005 302 L 492 302 L 491.8 302 L 491.6 302 L 491.40000000000003 302 L 491.20000000000005 302 L 491 302 L 490.8 302 L 490.6 302 L 490.40000000000003 302 L 490.20000000000005 302 L 490 302 L 489.8 302 L 489.6 302 L 489.40000000000003 302 L 489.20000000000005 302 L 489 302 L 488.8 302 L 488.6 302 L 488.40000000000003 302 L 488.20000000000005 302 L 488 302 L 487.8 302 L 487.6 302 L 487.40000000000003 302 L 487.20000000000005 302 L 487 302 L 486.8 302 L 486.6 302 L 486.40000000000003 302 L 486.20000000000005 302 L 486 302 L 485.8 302 L 485.6 302 L 485.40000000000003 302 L 485.20000000000005 302 L 485 302 L 484.8 302 L 484.6 302 L 484.40000000000003 302 L 484.20000000000005 302 L 484 302 L 483.8 302 L 483.6 302 L 483.40000000000003 302 L 483.20000000000005 302 L 483 302 L 482.8 302 L 482.6 302 L 482.40000000000003 302 L 482.20000000000005 302 L 482 302 L 481.8 302 L 481.6 302 L 481.40000000000003 302 L 481.20000000000005 302 L 481 302 L 480.8 302 L 480.6 302 L 480.40000000000003 302 L 480.20000000000005 302 L 480 302 L 479.8 302 L 479.6 302 L 479.40000000000003 302 L 479.20000000000005 302 L 479 302 L 478.8 302 L 478.6 302 L 478.40000000000003 302 L 478.20000000000005 302 L 478 302 L 477.8 302 L 477.6 302 L 477.40000000000003 302 L 477.20000000000005 302 L 477 302 L 476.8 302 L 476.6 302 L 476.40000000000003 302 L 476.20000000000005 302 L 476 302 L 475.8 302 L 475.6 302 L 475.40000000000003 302 L 475.20000000000005 302 L 475 302 L 474.8 302 L 474.6 302 L 474.40000000000003 302 L 474.20000000000005 302 L 474 302 L 473.8 302 L 473.6 302 L 473.40000000000003 302 L 473.20000000000005 302 L 473 302 L 472.8 302 L 472.6 302 L 472.40000000000003 302 L 472.20000000000005 302 L 472 302 L 471.8 302 L 471.6 302 L 471.40000000000003 302 L 471.20000000000005 302 L 471 302 L 470.8 302 L 470.6 302 L 470.40000000000003 302 L 470.20000000000005 302 L 470 302 L 469.8 302 L 469.6 302 L 469.40000000000003 302 L 469.20000000000005 302 L 469 302 L 468.8 302 L 468.6 302 L 468.40000000000003 302 L 468.20000000000005 302 L 468 302 L 467.8 302 L 467.6 302 L 467.40000000000003 302 L 467.20000000000005 302 L 467 302 L 466.8 302 L 466.6 302 L 466.40000000000003 302 L 466.20000000000005 302 L 466 302 L 465.8 302 L 465.6 302 L 465.40000000000003 302 L 465.20000000000005 302 L 465 302 L 464.8 302 L 464.6 302 L 464.40000000000003 302 L 464.20000000000005 302 L 464 302 L 463.8 302 L 463.6 302 L 463.40000000000003 302 L 463.20000000000005 302 L 463 302 L 462.8 302 L 462.6 302 L 462.40000000000003 302 L 462.20000000000005 302 L 462 302 L 461.8 302 L 461.6 302 L 461.40000000000003 302 L 461.20000000000005 302 L 461 302 L 460.8 302 L 460.6 302 L 460.40000000000003 302 L 460.20000000000005 302 L 460 302 L 459.8 302 L 459.6 302 L 459.40000000000003 302 L 459.20000000000005 302 L 459 302 L 458.8 302 L 458.6 302 L 458.40000000000003 302 L 458.20000000000005 302 L 458 302 L 457.8 302 L 457.6 302 L 457.40000000000003 302 L 457.20000000000005 302 L 457 302 L 456.8 302 L 456.6 302 L 456.40000000000003 302 L 456.20000000000005 302 L 456 302 L 455.8 302 L 455.6 302 L 455.40000000000003 302 L 455.20000000000005 302 L 455 302 L 454.8 302 L 454.6 302 L 454.40000000000003 302 L 454.20000000000005 302 L 454 302 L 453.8 302 L 453.6 302 L 453.40000000000003 302 L 453.20000000000005 302 L 453 302 L 452.8 302 L 452.6 302 L 452.40000000000003 302 L 452.20000000000005 302 L 452 302 L 451.8 302 L 451.6 302 L 451.40000000000003 302 L 451.20000000000005 302 L 451 302 L 450.8 302 L 450.6 302 L 450.40000000000003 302 L 450.20000000000005 302 L 450 302 L 449.8 302 L 449.6 302 L 449.40000000000003 302 L 449.20000000000005 302 L 449 302 L 448.8 302 L 448.6 302 L 448.40000000000003 302 L 448.20000000000005 302 L 448 302 L 447.8 302 L 447.6 302 L 447.40000000000003 302 L 447.20000000000005 302 L 447 302 L 446.8 302 L 446.6 302 L 446.40000000000003 302 L 446.20000000000005 302 L 446 302 L 445.8 302 L 445.6 302 L 445.40000000000003 302 L 445.20000000000005 302 L 445 302 L 444.8 302 L 444.6 302 L 444.40000000000003 302 L 444.20000000000005 302 L 444 302 L 443.8 302 L 443.6 302 L 443.40000000000003 302 L 443.20000000000005 302 L 443 302 L 442.8 302 L 442.6 302 L 442.40000000000003 302 L 442.20000000000005 302 L 442 302 L 441.8 302 L 441.6 302 L 441.40000000000003 302 L 441.20000000000005 302 L 441 302 L 440.8 302 L 440.6 302 L 440.40000000000003 302 L 440.20000000000005 302 L 440 302 L 439.8 302 L 439.6 302 L 439.40000000000003 302 L 439.20000000000005 302 L 439 302 L 438.8 302 L 438.6 302 L 438.40000000000003 302 L 438.20000000000005 302 L 438 302 L 437.8 302 L 437.6 302 L 437.40000000000003 302 L 437.20000000000005 302 L 437 302 L 436.8 302 L 436.6 302 L 436.40000000000003 302 L 436.20000000000005 302 L 436 302 L 435.8 302 L 435.6 302 L 435.40000000000003 302 L 435.20000000000005 302 L 435 302 L 434.8 302 L 434.6 302 L 434.40000000000003 302 L 434.20000000000005 302 L 434 302 L 433.8 302 L 433.6 302 L 433.40000000000003 302 L 433.20000000000005 302 L 433 302 L 432.8 302 L 432.6 302 L 432.40000000000003 302 L 432.20000000000005 302 L 432 302 L 431.8 302 L 431.6 302 L 431.40000000000003 302 L 431.20000000000005 302 L 431 302 L 430.8 302 L 430.6 302 L 430.40000000000003 302 L 430.20000000000005 302 L 430 302 L 429.8 302 L 429.6 302 L 429.40000000000003 302 L 429.20000000000005 302 L 429 302 L 428.8 302 L 428.6 302 L 428.40000000000003 302 L 428.20000000000005 302 L 428 302 L 427.8 302 L 427.6 302 L 427.40000000000003 302 L 427.20000000000005 302 L 427 302 L 426.8 302 L 426.6 302 L 426.40000000000003 302 L 426.20000000000005 302 L 426 302 L 425.8 302 L 425.6 302 L 425.40000000000003 302 L 425.20000000000005 302 L 425 302 L 424.8 302 L 424.6 302 L 424.40000000000003 302 L 424.20000000000005 302 L 424 302 L 423.8 302 L 423.6 302 L 423.40000000000003 302 L 423.20000000000005 302 L 423 302 L 422.8 302 L 422.6 302 L 422.40000000000003 302 L 422.20000000000005 302 L 422 302 L 421.8 302 L 421.6 302 L 421.40000000000003 302 L 421.20000000000005 302 L 421 302 L 420.8 302 L 420.6 302 L 420.40000000000003 302 L 420.20000000000005 302 L 420 302 L 419.8 302 L 419.6 302 L 419.40000000000003 302 L 419.20000000000005 302 L 419 302 L 418.8 302 L 418.6 302 L 418.40000000000003 302 L 418.20000000000005 302 L 418 302 L 417.8 302 L 417.6 302 L 417.40000000000003 302 L 417.20000000000005 302 L 417 302 L 416.8 302 L 416.6 302 L 416.40000000000003 302 L 416.20000000000005 302 L 416 302 L 415.8 302 L 415.6 302 L 415.40000000000003 302 L 415.20000000000005 302 L 415 302 L 414.8 302 L 414.6 302 L 414.40000000000003 302 L 414.20000000000005 302 L 414 302 L 413.8 302 L 413.6 302 L 413.40000000000003 302 L 413.20000000000005 302 L 413 302 L 412.8 302 L 412.6 302 L 412.40000000000003 302 L 412.20000000000005 302 L 412 302 L 411.8 302 L 411.6 302 L 411.40000000000003 302 L 411.20000000000005 302 L 411 302 L 410.8 302 L 410.6 302 L 410.40000000000003 302 L 410.20000000000005 302 L 410 302 L 409.8 302 L 409.6 302 L 409.40000000000003 302 L 409.20000000000005 302 L 409 302 L 408.8 302 L 408.6 302 L 408.40000000000003 302 L 408.20000000000005 302 L 408 302 L 407.8 302 L 407.6 302 L 407.40000000000003 302 L 407.20000000000005 302 L 407 302 L 406.8 302 L 406.6 302 L 406.40000000000003 302 L 406.20000000000005 302 L 406 302 L 405.8 302 L 405.6 302 L 405.40000000000003 302 L 405.20000000000005 302 L 405 302 L 404.8 302 L 404.6 302 L 404.40000000000003 302 L 404.20000000000005 302 L 404 302 L 403.8 302 L 403.6 302 L 403.40000000000003 302 L 403.20000000000005 302 L 403 302 L 402.8 302 L 402.6 302 L 402.40000000000003 302 L 402.20000000000005 302 L 402 302 L 401.8 302 L 401.6 302 L 401.40000000000003 302 L 401.20000000000005 302 L 401 302 L 400.8 302 L 400.6 302 L 400.40000000000003 302 L 400.20000000000005 302 L 400 302 L 399.8 302 L 399.6 302 L 399.40000000000003 302 L 399.20000000000005 302 L 399 302 L 398.8 302 L 398.6 302 L 398.40000000000003 302 L 398.20000000000005 302 L 398 302 L 397.8 302 L 397.6 302 L 397.40000000000003 302 L 397.20000000000005 302 L 397 302 L 396.8 302 L 396.6 302 L 396.40000000000003 302 L 396.20000000000005 302 L 396 302 L 395.8 302 L 395.6 302 L 395.40000000000003 302 L 395.20000000000005 302 L 395 302 L 394.8 302 L 394.6 302 L 394.40000000000003 302 L 394.20000000000005 302 L 394 302 L 393.8 302 L 393.6 302 L 393.40000000000003 302 L 393.20000000000005 302 L 393 302 L 392.8 302 L 392.6 302 L 392.40000000000003 302 L 392.20000000000005 302 L 392 302 L 391.8 302 L 391.6 302 L 391.40000000000003 302 L 391.20000000000005 302 L 391 302 L 390.8 302 L 390.6 302 L 390.40000000000003 302 L 390.20000000000005 302 L 390 302 L 389.8 302 L 389.6 302 L 389.40000000000003 302 L 389.20000000000005 302 L 389 302 L 388.8 302 L 388.6 302 L 388.40000000000003 302 L 388.20000000000005 302 L 388 302 L 387.8 302 L 387.6 302 L 387.40000000000003 302 L 387.20000000000005 302 L 387 302 L 386.8 302 L 386.6 302 L 386.40000000000003 302 L 386.20000000000005 302 L 386 302 L 385.8 302 L 385.6 302 L 385.40000000000003 302 L 385.20000000000005 302 L 385 302 L 384.8 302 L 384.6 302 L 384.40000000000003 302 L 384.20000000000005 302 L 384 302 L 383.8 302 L 383.6 302 L 383.40000000000003 302 L 383.20000000000005 302 L 383 302 L 382.8 302 L 382.6 302 L 382.40000000000003 302 L 382.20000000000005 302 L 382 302 L 381.8 302 L 381.6 302 L 381.40000000000003 302 L 381.20000000000005 302 L 381 302 L 380.8 302 L 380.6 302 L 380.40000000000003 302 L 380.20000000000005 302 L 380 302 L 379.8 302 L 379.6 302 L 379.40000000000003 302 L 379.20000000000005 302 L 379 302 L 378.8 302 L 378.6 302 L 378.40000000000003 302 L 378.20000000000005 302 L 378 302 L 377.8 302 L 377.6 302 L 377.40000000000003 302 L 377.20000000000005 302 L 377 302 L 376.8 302 L 376.6 302 L 376.40000000000003 302 L 376.20000000000005 302 L 376 302 L 375.8 302 L 375.6 302 L 375.40000000000003 302 L 375.20000000000005 302 L 375 302 L 374.8 302 L 374.6 302 L 374.40000000000003 302 L 374.20000000000005 302 L 374 302 L 373.8 302 L 373.6 302 L 373.40000000000003 302 L 373.20000000000005 302 L 373 302 L 372.8 302 L 372.6 302 L 372.40000000000003 302 L 372.20000000000005 302 L 372 302 L 371.8 302 L 371.6 302 L 371.40000000000003 302 L 371.20000000000005 302 L 371 302 L 370.8 302 L 370.6 302 L 370.40000000000003 302 L 370.20000000000005 302 L 370 302 L 369.8 302 L 369.6 302 L 369.40000000000003 302 L 369.20000000000005 302 L 369 302 L 368.8 302 L 368.6 302 L 368.40000000000003 302 L 368.20000000000005 302 L 368 302 L 367.8 302 L 367.6 302 L 367.40000000000003 302 L 367.20000000000005 302 L 367 302 L 366.8 302 L 366.6 302 L 366.40000000000003 302 L 366.20000000000005 302 L 366 302 L 365.8 302 L 365.6 302 L 365.40000000000003 302 L 365.20000000000005 302 L 365 302 L 364.8 302 L 364.6 302 L 364.40000000000003 302 L 364.20000000000005 302 L 364 302 L 363.8 302 L 363.6 302 L 363.40000000000003 302 L 363.20000000000005 302 L 363 302 L 362.8 302 L 362.6 302 L 362.40000000000003 302 L 362.20000000000005 302 L 362 302 L 361.8 302 L 361.6 302 L 361.40000000000003 302 L 361.20000000000005 302 L 361 302 L 360.8 302 L 360.6 302 L 360.40000000000003 302 L 360.20000000000005 302 L 360 302 L 359.8 302 L 359.6 302 L 359.40000000000003 302 L 359.20000000000005 302 L 359 302 L 358.8 302 L 358.6 302 L 358.40000000000003 302 L 358.20000000000005 302 L 358 302 L 357.8 302 L 357.6 302 L 357.40000000000003 302 L 357.20000000000005 302 L 357 302 L 356.8 302 L 356.6 302 L 356.40000000000003 302 L 356.20000000000005 302 L 356 302 L 355.8 302 L 355.6 302 L 355.40000000000003 302 L 355.20000000000005 302 L 355 302 L 354.8 302 L 354.6 302 L 354.40000000000003 302 L 354.20000000000005 302 L 354 302 L 353.8 302 L 353.6 302 L 353.40000000000003 302 L 353.20000000000005 302 L 353 302 L 352.8 302 L 352.6 302 L 352.40000000000003 302 L 352.20000000000005 302 L 352 302 L 351.8 302 L 351.6 302 L 351.40000000000003 302 L 351.20000000000005 302 L 351 302 L 350.8 302 L 350.6 302 L 350.40000000000003 302 L 350.20000000000005 302 L 350 302 L 349.8 302 L 349.6 302 L 349.40000000000003 302 L 349.20000000000005 302 L 349 302 L 348.8 302 L 348.6 302 L 348.40000000000003 302 L 348.20000000000005 302 L 348 302 L 347.8 302 L 347.6 302 L 347.40000000000003 302 L 347.20000000000005 302 L 347 302 L 346.8 302 L 346.6 302 L 346.40000000000003 302 L 346.20000000000005 302 L 346 302 L 345.8 302 L 345.6 302 L 345.40000000000003 302 L 345.20000000000005 302 L 345 302 L 344.8 302 L 344.6 302 L 344.40000000000003 302 L 344.20000000000005 302 L 344 302 L 343.8 302 L 343.6 302 L 343.40000000000003 302 L 343.20000000000005 302 L 343 302 L 342.8 302 L 342.6 302 L 342.40000000000003 302 L 342.20000000000005 302 L 342 302 L 341.8 302 L 341.6 302 L 341.40000000000003 302 L 341.20000000000005 302 L 341 302 L 340.8 302 L 340.6 302 L 340.40000000000003 302 L 340.20000000000005 302 L 340 302 L 339.8 302 L 339.6 302 L 339.40000000000003 302 L 339.20000000000005 302 L 339 302 L 338.8 302 L 338.6 302 L 338.40000000000003 302 L 338.20000000000005 302 L 338 302 L 337.8 302 L 337.6 302 L 337.40000000000003 302 L 337.20000000000005 302 L 337 302 L 336.8 302 L 336.6 302 L 336.40000000000003 302 L 336.20000000000005 302 L 336 302 L 335.8 302 L 335.6 302 L 335.40000000000003 302 L 335.20000000000005 302 L 335 302 L 334.8 302 L 334.6 302 L 334.40000000000003 302 L 334.20000000000005 302 L 334 302 L 333.8 302 L 333.6 302 L 333.40000000000003 302 L 333.20000000000005 302 L 333 302 L 332.8 302 L 332.6 302 L 332.40000000000003 302 L 332.20000000000005 302 L 332 302 L 331.8 302 L 331.6 302 L 331.40000000000003 302 L 331.20000000000005 302 L 331 302 L 330.8 302 L 330.6 302 L 330.40000000000003 302 L 330.20000000000005 302 L 330 302 L 329.8 302 L 329.6 302 L 329.40000000000003 302 L 329.20000000000005 302 L 329 302 L 328.8 302 L 328.6 302 L 328.40000000000003 302 L 328.20000000000005 302 L 328 302 L 327.8 302 L 327.6 302 L 327.40000000000003 302 L 327.20000000000005 302 L 327 302 L 326.8 302 L 326.6 302 L 326.40000000000003 302 L 326.20000000000005 302 L 326 302 L 325.8 302 L 325.6 302 L 325.40000000000003 302 L 325.20000000000005 302 L 325 302 L 324.8 302 L 324.6 302 L 324.40000000000003 302 L 324.20000000000005 302 L 324 302 L 323.8 302 L 323.6 302 L 323.40000000000003 302 L 323.20000000000005 302 L 323 302 L 322.8 302 L 322.6 302 L 322.40000000000003 302 L 322.20000000000005 302 L 322 302 L 321.8 302 L 321.6 302 L 321.40000000000003 302 L 321.20000000000005 302 L 321 302 L 320.8 302 L 320.6 302 L 320.40000000000003 302 L 320.20000000000005 302 L 320 302 L 319.8 302 L 319.6 302 L 319.40000000000003 302 L 319.20000000000005 302 L 319 302 L 318.8 302 L 318.6 302 L 318.40000000000003 302 L 318.20000000000005 302 L 318 302 L 317.8 302 L 317.6 302 L 317.40000000000003 302 L 317.20000000000005 302 L 317 302 L 316.8 302 L 316.6 302 L 316.40000000000003 302 L 316.20000000000005 302 L 316 302 L 315.8 302 L 315.6 302 L 315.40000000000003 302 L 315.20000000000005 302 L 315 302 L 314.8 302 L 314.6 302 L 314.40000000000003 302 L 314.20000000000005 302 L 314 302 L 313.8 302 L 313.6 302 L 313.40000000000003 302 L 313.20000000000005 302 L 313 302 L 312.8 302 L 312.6 302 L 312.40000000000003 302 L 312.20000000000005 302 L 312 302 L 311.8 302 L 311.6 302 L 311.40000000000003 302 L 311.20000000000005 302 L 311 302 L 310.8 302 L 310.6 302 L 310.40000000000003 302 L 310.20000000000005 302 L 310 302 L 309.8 302 L 309.6 302 L 309.40000000000003 302 L 309.20000000000005 302 L 309 302 L 308.8 302 L 308.6 302 L 308.40000000000003 302 L 308.20000000000005 302 L 308 302 L 307.8 302 L 307.6 302 L 307.40000000000003 302 L 307.20000000000005 302 L 307 302 L 306.8 302 L 306.6 302 L 306.40000000000003 302 L 306.2 302 L 306 302 L 305.8 302 L 305.6 302 L 305.40000000000003 302 L 305.2 302 L 305 302 L 304.8 302 L 304.6 302 L 304.40000000000003 302 L 304.2 302 L 304 302 L 303.8 302 L 303.6 302 L 303.40000000000003 302 L 303.2 302 L 303 302 L 302.8 302 L 302.6 302 L 302.40000000000003 302 L 302.2 302 L 302 302 L 301.8 302 L 301.6 302 L 301.40000000000003 302 L 301.2 302 L 301 302 L 300.8 302 L 300.6 302 L 300.40000000000003 302 L 300.2 302 L 300 302 L 299.8 302 L 299.6 302 L 299.40000000000003 302 L 299.2 302 L 299 302 L 298.8 302 L 298.6 302 L 298.40000000000003 302 L 298.2 302 L 298 302 L 297.8 302 L 297.6 302 L 297.40000000000003 302 L 297.2 302 L 297 302 L 296.8 302 L 296.6 302 L 296.40000000000003 302 L 296.2 302 L 296 302 L 295.8 302 L 295.6 302 L 295.40000000000003 302 L 295.2 302 L 295 302 L 294.8 302 L 294.6 302 L 294.40000000000003 302 L 294.2 302 L 294 302 L 293.8 302 L 293.6 302 L 293.40000000000003 302 L 293.2 302 L 293 302 L 292.8 302 L 292.6 302 L 292.40000000000003 302 L 292.2 302 L 292 302 L 291.8 302 L 291.6 302 L 291.40000000000003 302 L 291.2 302 L 291 302 L 290.8 302 L 290.6 302 L 290.40000000000003 302 L 290.2 302 L 290 302 L 289.8 302 L 289.6 302 L 289.40000000000003 302 L 289.2 302 L 289 302 L 288.8 302 L 288.6 302 L 288.40000000000003 302 L 288.2 302 L 288 302 L 287.8 302 L 287.6 302 L 287.40000000000003 302 L 287.2 302 L 287 302 L 286.8 302 L 286.6 302 L 286.40000000000003 302 L 286.2 302 L 286 302 L 285.8 302 L 285.6 302 L 285.40000000000003 302 L 285.2 302 L 285 302 L 284.8 302 L 284.6 302 L 284.40000000000003 302 L 284.2 302 L 284 302 L 283.8 302 L 283.6 302 L 283.40000000000003 302 L 283.2 302 L 283 302 L 282.8 302 L 282.6 302 L 282.40000000000003 302 L 282.2 302 L 282 302 L 281.8 302 L 281.6 302 L 281.40000000000003 302 L 281.2 302 L 281 302 L 280.8 302 L 280.6 302 L 280.40000000000003 302 L 280.2 302 L 280 302 L 279.8 302 L 279.6 302 L 279.40000000000003 302 L 279.2 302 L 279 302 L 278.8 302 L 278.6 302 L 278.40000000000003 302 L 278.2 302 L 278 302 L 277.8 302 L 277.6 302 L 277.40000000000003 302 L 277.2 302 L 277 302 L 276.8 302 L 276.6 302 L 276.40000000000003 302 L 276.2 302 L 276 302 L 275.8 302 L 275.6 302 L 275.40000000000003 302 L 275.2 302 L 275 302 L 274.8 302 L 274.6 302 L 274.40000000000003 302 L 274.2 302 L 274 302 L 273.8 302 L 273.6 302 L 273.40000000000003 302 L 273.2 302 L 273 302 L 272.8 302 L 272.6 302 L 272.40000000000003 302 L 272.2 302 L 272 302 L 271.8 302 L 271.6 302 L 271.40000000000003 302 L 271.2 302 L 271 302 L 270.8 302 L 270.6 302 L 270.40000000000003 302 L 270.2 302 L 270 302 L 269.8 302 L 269.6 302 L 269.40000000000003 302 L 269.2 302 L 269 302 L 268.8 302 L 268.6 302 L 268.40000000000003 302 L 268.2 302 L 268 302 L 267.8 302 L 267.6 302 L 267.40000000000003 302 L 267.2 302 L 267 302 L 266.8 302 L 266.6 302 L 266.40000000000003 302 L 266.2 302 L 266 302 L 265.8 302 L 265.6 302 L 265.40000000000003 302 L 265.2 302 L 265 302 L 264.8 302 L 264.6 302 L 264.40000000000003 302 L 264.2 302 L 264 302 L 263.8 302 L 263.6 302 L 263.40000000000003 302 L 263.2 302 L 263 302 L 262.8 302 L 262.6 302 L 262.40000000000003 302 L 262.2 302 L 262 302 L 261.8 302 L 261.6 302 L 261.40000000000003 302 L 261.2 302 L 261 302 L 260.8 302 L 260.6 302 L 260.40000000000003 302 L 260.2 302 L 260 302 L 259.8 302 L 259.6 302 L 259.40000000000003 302 L 259.2 302 L 259 302 L 258.8 302 L 258.6 302 L 258.40000000000003 302 L 258.2 302 L 258 302 L 257.8 302 L 257.6 302 L 257.40000000000003 302 L 257.2 302 L 257 302 L 256.8 302 L 256.6 302 L 256.40000000000003 302 L 256.2 302 L 256 301.8 L 255.8 301.8 L 255.60000000000002 301.8 L 255.60000000000002 301.6 L 255.4 301.6 L 255.20000000000002 301.40000000000003 L 255.20000000000002 301.2 L 255 301 L 254.8 300.8 L 254.8 300.6 L 254.60000000000002 300.40000000000003 L 254.4 300 L 254.20000000000002 299.6 L 254.20000000000002 299 L 254 298.6 L 253.8 298 L 253.8 297.2 L 253.60000000000002 296.6 L 253.4 295.6 L 253.20000000000002 294.8 L 253.20000000000002 293.8 L 253 292.8 L 252.8 291.6 L 252.8 290.6 L 252.60000000000002 289.40000000000003 L 252.4 288 L 252.4 286.8 L 252.20000000000002 285.40000000000003 L 252 284.2 L 251.8 283 L 251.8 281.6 L 251.60000000000002 280.40000000000003 L 251.4 279.40000000000003 L 251.4 278.40000000000003 L 251.20000000000002 277.40000000000003 L 251 276.6 L 250.8 276 L 250.8 275.6 L 250.60000000000002 275.2 L 250.4 275 L 250.20000000000002 275.2 L 250 275.6 L 249.8 276 L 249.8 276.6 L 249.60000000000002 277.40000000000003 L 249.4 278.40000000000003 L 249.4 279.40000000000003 L 249.20000000000002 280.6 L 249 281.6 L 249 283 L 248.8 284.2 L 248.60000000000002 285.40000000000003 L 248.4 286.8 L 248.4 288 L 248.20000000000002 289.40000000000003 L 248 290.6 L 248 291.8 L 247.8 292.8 L 247.60000000000002 293.8 L 247.4 294.8 L 247.4 295.8 L 247.20000000000002 296.6 L 247 297.2 L 247 298 L 246.8 298.6 L 246.60000000000002 299 L 246.60000000000002 299.6 L 246.4 300 L 246.20000000000002 300.40000000000003 L 246 300.6 L 246 300.8 L 245.8 301 L 245.60000000000002 301.2 L 245.60000000000002 301.40000000000003 L 245.4 301.6 L 245.20000000000002 301.6 L 245 301.8 L 244.8 301.8 L 244.60000000000002 302 L 244.4 302 L 244.20000000000002 302 L 244 302 L 243.8 302 L 243.60000000000002 302 L 243.4 302 L 243.20000000000002 302 L 243 302 L 242.8 302 L 242.60000000000002 302 L 242.4 302 L 242.20000000000002 302 L 242 302 L 241.8 302 L 241.60000000000002 302 L 241.4 302 L 241.20000000000002 302 L 241 302 L 240.8 302 L 240.60000000000002 302 L 240.4 302 L 240.20000000000002 302 L 240 302 L 239.8 302 L 239.60000000000002 302 L 239.4 302 L 239.20000000000002 302 L 239 302 L 238.8 302 L 238.60000000000002 302 L 238.4 302 L 238.20000000000002 302 L 238 302 L 237.8 302 L 237.60000000000002 302 L 237.4 302 L 237.20000000000002 302 L 237 302 L 236.8 302 L 236.60000000000002 302 L 236.4 302 L 236.20000000000002 302 L 236 302 L 235.8 302 L 235.60000000000002 302 L 235.4 302 L 235.20000000000002 302 L 235 302 L 234.8 302 L 234.60000000000002 302 L 234.4 302 L 234.20000000000002 302 L 234 302 L 233.8 302 L 233.60000000000002 302 L 233.4 302 L 233.20000000000002 302 L 233 302 L 232.8 302 L 232.60000000000002 302 L 232.4 302 L 232.20000000000002 302 L 232 302 L 231.8 302 L 231.60000000000002 302 L 231.4 302 L 231.20000000000002 302 L 231 302 L 230.8 302 L 230.60000000000002 302 L 230.4 302 L 230.20000000000002 302 L 230 302 L 229.8 302 L 229.60000000000002 302 L 229.4 302 L 229.20000000000002 302 L 229 302 L 228.8 302 L 228.60000000000002 302 L 228.4 302 L 228.20000000000002 302 L 228 302 L 227.8 301.8 L 227.60000000000002 301.8 L 227.4 301.6 L 227.20000000000002 301.6 L 227.20000000000002 301.40000000000003 L 227 301.2 L 226.8 301 L 226.60000000000002 300.6 L 226.60000000000002 300.2 L 226.4 299.8 L 226.20000000000002 299.40000000000003 L 226.20000000000002 298.8 L 226 298 L 225.8 297.2 L 225.60000000000002 296.2 L 225.60000000000002 295 L 225.4 293.8 L 225.20000000000002 292.40000000000003 L 225.20000000000002 290.8 L 225 288.8 L 224.8 286.8 L 224.8 284.6 L 224.60000000000002 282.2 L 224.4 279.6 L 224.20000000000002 276.6 L 224.20000000000002 273.6 L 224 270.40000000000003 L 223.8 267 L 223.8 263.6 L 223.60000000000002 260 L 223.4 256.40000000000003 L 223.20000000000002 252.8 L 223.20000000000002 249.20000000000002 L 223 245.60000000000002 L 222.8 242.20000000000002 L 222.8 239 L 222.60000000000002 236 L 222.4 233.4 L 222.4 231 L 222.20000000000002 229 L 222 227.4 L 221.8 226.20000000000002 L 221.8 225.4 L 221.60000000000002 225.20000000000002 L 221.4 225.20000000000002 L 221.4 226 L 221.20000000000002 227 L 221 228.60000000000002 L 220.8 230.4 L 220.8 232.8 L 220.60000000000002 235.4 L 220.4 238.20000000000002 L 220.4 241.4 L 220.20000000000002 244.8 L 220 248.20000000000002 L 219.8 251.8 L 219.8 255.4 L 219.60000000000002 259 L 219.4 262.6 L 219.4 266 L 219.20000000000002 269.40000000000003 L 219 272.6 L 219 275.8 L 218.8 278.6 L 218.60000000000002 281.40000000000003 L 218.4 283.8 L 218.4 286.2 L 218.20000000000002 288.2 L 218 290.2 L 218 291.8 L 217.8 293.40000000000003 L 217.60000000000002 294.6 L 217.4 295.8 L 217.4 296.8 L 217.20000000000002 297.8 L 217 298.40000000000003 L 217 299.2 L 216.8 299.6 L 216.60000000000002 300.2 L 216.4 300.40000000000003 L 216.4 300.8 L 216.20000000000002 301 L 216 301.2 L 216 301.40000000000003 L 215.8 301.6 L 215.60000000000002 301.6 L 215.60000000000002 301.8 L 215.4 301.8 L 215.20000000000002 302 L 215 302 L 214.8 302 L 214.60000000000002 302 L 214.4 302 L 214.20000000000002 302 L 214 302 L 213.8 302 L 213.60000000000002 302 L 213.4 302 L 213.20000000000002 302 L 213 302 L 212.8 302 L 212.60000000000002 302 L 212.4 302 L 212.20000000000002 302 L 212 302 L 211.8 302 L 211.60000000000002 302 L 211.4 302 L 211.20000000000002 302 L 211 302 L 210.8 302 L 210.60000000000002 302 L 210.4 302 L 210.20000000000002 302 L 210 302 L 209.8 302 L 209.60000000000002 302 L 209.4 302 L 209.20000000000002 302 L 209 302 L 208.8 302 L 208.60000000000002 302 L 208.4 302 L 208.20000000000002 302 L 208 302 L 207.8 302 L 207.60000000000002 302 L 207.4 302 L 207.20000000000002 302 L 207 302 L 206.8 302 L 206.60000000000002 302 L 206.4 302 L 206.20000000000002 302 L 206 302 L 205.8 302 L 205.60000000000002 302 L 205.4 302 L 205.20000000000002 302 L 205 302 L 204.8 302 L 204.60000000000002 302 L 204.4 302 L 204.20000000000002 302 L 204 302 L 203.8 302 L 203.60000000000002 302 L 203.4 302 L 203.20000000000002 302 L 203 302 L 202.8 302 L 202.60000000000002 302 L 202.4 302 L 202.20000000000002 302 L 202 302 L 201.8 302 L 201.60000000000002 302 L 201.4 302 L 201.20000000000002 302 L 201 302 L 200.8 302 L 200.60000000000002 302 L 200.4 302 L 200.20000000000002 302 L 200 302 L 199.8 302 L 199.60000000000002 302 L 199.4 302 L 199.20000000000002 302 L 199 302 L 199 301.8 L 198.8 301.8 L 198.60000000000002 301.8 L 198.60000000000002 301.6 L 198.4 301.6 L 198.20000000000002 301.40000000000003 L 198.20000000000002 301.2 L 198 301 L 197.8 300.6 L 197.60000000000002 300.2 L 197.60000000000002 299.8 L 197.4 299.40000000000003 L 197.20000000000002 298.8 L 197.20000000000002 298 L 197 297.2 L 196.8 296.2 L 196.60000000000002 295 L 196.60000000000002 293.8 L 196.4 292.40000000000003 L 196.20000000000002 290.8 L 196.20000000000002 288.8 L 196 286.8 L 195.8 284.6 L 195.60000000000002 282.2 L 195.60000000000002 279.6 L 195.4 276.8 L 195.20000000000002 273.8 L 195.20000000000002 270.6 L 195 267.2 L 194.8 263.8 L 194.8 260.40000000000003 L 194.60000000000002 256.8 L 194.4 253.20000000000002 L 194.20000000000002 249.8 L 194.20000000000002 246.4 L 194 243 L 193.8 240 L 193.8 237.20000000000002 L 193.60000000000002 234.60000000000002 L 193.4 232.4 L 193.20000000000002 230.60000000000002 L 193.20000000000002 229 L 193 228 L 192.8 227.4 L 192.60000000000002 227.60000000000002 L 192.4 228.4 L 192.4 229.60000000000002 L 192.20000000000002 231.20000000000002 L 192 233.20000000000002 L 191.8 235.60000000000002 L 191.8 238.20000000000002 L 191.60000000000002 241.20000000000002 L 191.4 244.20000000000002 L 191.4 247.60000000000002 L 191.20000000000002 251 L 191 254.60000000000002 L 190.8 258.2 L 190.8 261.6 L 190.60000000000002 265 L 190.4 268.40000000000003 L 190.4 271.8 L 190.20000000000002 274.8 L 190 277.8 L 189.8 280.40000000000003 L 189.8 283 L 189.60000000000002 285.40000000000003 L 189.4 287.40000000000003 L 189.4 289.40000000000003 L 189.20000000000002 291 L 189 292.40000000000003 L 189 293.8 L 188.8 295 L 188.60000000000002 295.8 L 188.4 296.6 L 188.4 297.2 L 188.20000000000002 297.6 L 188 298 L 188 298.2 L 187.8 298.2 L 187.60000000000002 298.2 L 187.4 298 L 187.4 297.8 L 187.20000000000002 297.6 L 187 297 L 187 296.6 L 186.8 296 L 186.60000000000002 295.40000000000003 L 186.4 294.6 L 186.4 293.8 L 186.20000000000002 293 L 186 292.2 L 186 291.40000000000003 L 185.8 290.40000000000003 L 185.60000000000002 289.6 L 185.60000000000002 288.6 L 185.4 287.8 L 185.20000000000002 287 L 185 286.2 L 185 285.6 L 184.8 284.8 L 184.60000000000002 284.40000000000003 L 184.60000000000002 283.8 L 184.4 283.6 L 184.20000000000002 283.40000000000003 L 184 283.2 L 183.8 283.40000000000003 L 183.60000000000002 283.6 L 183.60000000000002 283.8 L 183.4 284.40000000000003 L 183.20000000000002 284.8 L 183.20000000000002 285.6 L 183 286.2 L 182.8 287 L 182.60000000000002 287.8 L 182.60000000000002 288.6 L 182.4 289.6 L 182.20000000000002 290.40000000000003 L 182.20000000000002 291.40000000000003 L 182 292.2 L 181.8 293.2 L 181.60000000000002 294 L 181.60000000000002 294.8 L 181.4 295.6 L 181.20000000000002 296.40000000000003 L 181.20000000000002 297 L 181 297.6 L 180.8 298.2 L 180.60000000000002 298.8 L 180.60000000000002 299.2 L 180.4 299.6 L 180.20000000000002 300 L 180.20000000000002 300.40000000000003 L 180 300.6 L 179.8 300.8 L 179.8 301 L 179.60000000000002 301.2 L 179.4 301.40000000000003 L 179.20000000000002 301.6 L 179 301.8 L 178.8 301.8 L 178.60000000000002 302 L 178.4 302 L 178.20000000000002 302 L 178 302 L 177.8 302 L 177.60000000000002 302 L 177.4 302 L 177.20000000000002 302 L 177 302 L 176.8 302 L 176.60000000000002 302 L 176.4 302 L 176.20000000000002 302 L 176 302 L 175.8 302 L 175.60000000000002 302 L 175.4 302 L 175.20000000000002 302 L 175 302 L 174.8 302 L 174.60000000000002 302 L 174.4 302 L 174.20000000000002 302 L 174 302 L 173.8 302 L 173.60000000000002 302 L 173.4 302 L 173.20000000000002 302 L 173 302 L 172.8 302 L 172.60000000000002 302 L 172.4 302 L 172.20000000000002 302 L 172 302 L 171.8 302 L 171.60000000000002 302 L 171.4 302 L 171.20000000000002 302 L 171 302 L 170.8 302 L 170.60000000000002 302 L 170.4 302 L 170.20000000000002 302 L 170 302 L 169.8 302 L 169.60000000000002 302 L 169.4 302 L 169.20000000000002 301.8 L 169 301.8 L 168.8 301.6 L 168.60000000000002 301.40000000000003 L 168.4 301.2 L 168.20000000000002 301 L 168.20000000000002 300.8 L 168 300.40000000000003 L 167.8 300.2 L 167.60000000000002 299.8 L 167.60000000000002 299.40000000000003 L 167.4 298.8 L 167.20000000000002 298.40000000000003 L 167.20000000000002 297.8 L 167 297 L 166.8 296.40000000000003 L 166.60000000000002 295.6 L 166.60000000000002 294.6 L 166.4 293.8 L 166.20000000000002 292.8 L 166.20000000000002 291.6 L 166 290.6 L 165.8 289.40000000000003 L 165.60000000000002 288.2 L 165.60000000000002 287.2 L 165.4 286 L 165.20000000000002 284.8 L 165.20000000000002 283.6 L 165 282.6 L 164.8 281.6 L 164.8 280.8 L 164.60000000000002 280 L 164.4 279.2 L 164.20000000000002 278.6 L 164.20000000000002 278.2 L 164 277.8 L 163.8 277.8 L 163.60000000000002 277.8 L 163.4 278.2 L 163.20000000000002 278.6 L 163.20000000000002 279.2 L 163 280 L 162.8 280.8 L 162.8 281.6 L 162.60000000000002 282.6 L 162.4 283.6 L 162.20000000000002 284.8 L 162.20000000000002 286 L 162 287 L 161.8 288.2 L 161.8 289.40000000000003 L 161.60000000000002 290.6 L 161.4 291.6 L 161.4 292.6 L 161.20000000000002 293.6 L 161 294.40000000000003 L 160.8 295.2 L 160.8 296 L 160.60000000000002 296.6 L 160.4 297 L 160.4 297.40000000000003 L 160.20000000000002 297.8 L 160 298 L 159.8 298.2 L 159.60000000000002 298 L 159.4 297.8 L 159.4 297.40000000000003 L 159.20000000000002 296.8 L 159 296.2 L 159 295.40000000000003 L 158.8 294.40000000000003 L 158.60000000000002 293.40000000000003 L 158.4 292 L 158.4 290.6 L 158.20000000000002 289 L 158 287.2 L 158 285.40000000000003 L 157.8 283.2 L 157.60000000000002 281 L 157.4 278.8 L 157.4 276.2 L 157.20000000000002 273.8 L 157 271.2 L 157 268.6 L 156.8 266 L 156.60000000000002 263.40000000000003 L 156.4 260.8 L 156.4 258.40000000000003 L 156.20000000000002 256.2 L 156 254 L 156 252.20000000000002 L 155.8 250.60000000000002 L 155.60000000000002 249.20000000000002 L 155.60000000000002 248 L 155.4 247.20000000000002 L 155.20000000000002 246.8 L 155 246.8 L 155 247 L 154.8 247.60000000000002 L 154.60000000000002 248.4 L 154.60000000000002 249.60000000000002 L 154.4 251.20000000000002 L 154.20000000000002 252.8 L 154 254.8 L 154 257 L 153.8 259.40000000000003 L 153.60000000000002 261.8 L 153.60000000000002 264.40000000000003 L 153.4 267 L 153.20000000000002 269.6 L 153.20000000000002 272.2 L 153 274.8 L 152.8 277.2 L 152.6 279.6 L 152.6 282 L 152.4 284.2 L 152.20000000000002 286.2 L 152.20000000000002 288 L 152 289.8 L 151.8 291.40000000000003 L 151.6 292.8 L 151.6 294.2 L 151.4 295.2 L 151.20000000000002 296.2 L 151.20000000000002 297.2 L 151 298 L 150.8 298.6 L 150.6 299.2 L 150.6 299.8 L 150.4 300.2 L 150.20000000000002 300.6 L 150.20000000000002 300.8 L 150 301 L 149.8 301.2 L 149.8 301.40000000000003 L 149.6 301.6 L 149.4 301.6 L 149.20000000000002 301.8 L 149 302 L 148.8 302 L 148.6 302 L 148.4 302 L 148.20000000000002 302 L 148 302 L 147.8 302 L 147.6 302 L 147.4 302 L 147.20000000000002 302 L 147 302 L 146.8 302 L 146.6 302 L 146.4 302 L 146.20000000000002 302 L 146 302 L 145.8 302 L 145.6 302 L 145.4 302 L 145.20000000000002 302 L 145 302 L 144.8 302 L 144.6 302 L 144.4 302 L 144.20000000000002 302 L 144 302 L 143.8 302 L 143.6 302 L 143.4 302 L 143.20000000000002 302 L 143 302 L 142.8 302 L 142.6 302 L 142.4 302 L 142.20000000000002 302 L 142 302 L 141.8 302 L 141.6 302 L 141.4 302 L 141.20000000000002 302 L 141 302 L 140.8 302 L 140.6 302 L 140.4 302 L 140.20000000000002 302 L 140 302 L 139.8 302 L 139.6 302 L 139.4 302 L 139.20000000000002 302 L 139 302 L 138.8 302 L 138.6 302 L 138.4 302 L 138.20000000000002 302 L 138 302 L 137.8 302 L 137.6 302 L 137.4 302 L 137.20000000000002 302 L 137 302 L 136.8 302 L 136.6 302 L 136.4 302 L 136.20000000000002 302 L 136 302 L 135.8 302 L 135.6 302 L 135.4 302 L 135.20000000000002 302 L 135 302 L 134.8 302 L 134.6 302 L 134.4 302 L 134.20000000000002 302 L 134 302 L 133.8 302 L 133.6 302 L 133.4 302 L 133.20000000000002 302 L 133 302 L 132.8 302 L 132.6 302 L 132.4 302 L 132.20000000000002 301.8 L 132 301.8 L 131.8 301.6 L 131.6 301.40000000000003 L 131.4 301.2 L 131.4 301 L 131.20000000000002 300.8 L 131 300.40000000000003 L 130.8 300 L 130.8 299.6 L 130.6 299.2 L 130.4 298.6 L 130.4 297.8 L 130.20000000000002 297 L 130 296 L 129.8 295 L 129.8 293.8 L 129.6 292.40000000000003 L 129.4 291 L 129.4 289.40000000000003 L 129.20000000000002 287.6 L 129 285.6 L 129 283.6 L 128.8 281.40000000000003 L 128.6 279.2 L 128.4 276.8 L 128.4 274.2 L 128.20000000000002 271.6 L 128 269 L 128 266.6 L 127.80000000000001 264 L 127.60000000000001 261.40000000000003 L 127.4 259 L 127.4 256.8 L 127.2 254.8 L 127 253 L 127 251.4 L 126.80000000000001 250 L 126.60000000000001 248.8 L 126.4 248.20000000000002 L 126.4 247.60000000000002 L 126.2 247.60000000000002 L 126 247.8 L 126 248.4 L 125.80000000000001 249.20000000000002 L 125.60000000000001 250.4 L 125.60000000000001 251.8 L 125.4 253.60000000000002 L 125.2 255.60000000000002 L 125 257.6 L 125 260 L 124.80000000000001 262.40000000000003 L 124.60000000000001 264.8 L 124.60000000000001 267.40000000000003 L 124.4 270 L 124.2 272.6 L 124 275.2 L 124 277.6 L 123.80000000000001 280 L 123.60000000000001 282.2 L 123.60000000000001 284.40000000000003 L 123.4 286.40000000000003 L 123.2 288.2 L 123 290 L 123 291.6 L 122.80000000000001 293 L 122.60000000000001 294.2 L 122.60000000000001 295.40000000000003 L 122.4 296.40000000000003 L 122.2 297.2 L 122.2 298 L 122 298.8 L 121.80000000000001 299.2 L 121.60000000000001 299.8 L 121.60000000000001 300.2 L 121.4 300.6 L 121.2 300.8 L 121.2 301 L 121 301.2 L 120.80000000000001 301.40000000000003 L 120.60000000000001 301.6 L 120.4 301.8 L 120.2 301.8 L 120.2 302 L 120 302 L 119.80000000000001 302 L 119.60000000000001 302 L 119.4 302 L 119.2 302 L 119 302 L 118.80000000000001 302 L 118.60000000000001 302 L 118.4 302 L 118.2 302 L 118 302 L 117.80000000000001 302 L 117.60000000000001 302 L 117.4 302 L 117.2 302 L 117 302 L 116.80000000000001 302 L 116.60000000000001 302 L 116.4 302 L 116.2 302 L 116 302 L 115.80000000000001 302 L 115.60000000000001 302 L 115.4 302 L 115.2 302 L 115 302 L 114.80000000000001 302 L 114.60000000000001 302 L 114.4 302 L 114.2 302 L 114 302 L 113.80000000000001 302 L 113.60000000000001 302 L 113.4 302 L 113.2 302 L 113 302 L 112.80000000000001 302 L 112.60000000000001 302 L 112.4 302 L 112.2 302 L 112 302 L 111.80000000000001 302 L 111.60000000000001 302 L 111.4 302 L 111.2 302 L 111 302 L 110.80000000000001 302 L 110.60000000000001 302 L 110.4 302 L 110.2 302 L 110 302 L 109.80000000000001 302 L 109.60000000000001 302 L 109.4 302 L 109.2 302 L 109 302 L 108.80000000000001 302 L 108.60000000000001 302 L 108.4 302 L 108.2 302 L 108 302 L 107.80000000000001 302 L 107.60000000000001 302 L 107.4 302 L 107.2 302 L 107 302 L 106.80000000000001 302 L 106.60000000000001 302 L 106.4 302 L 106.2 302 L 106 302 L 105.80000000000001 302 L 105.60000000000001 302 L 105.4 302 L 105.2 302 L 105 302 L 104.80000000000001 302 L 104.60000000000001 302 L 104.4 302 L 104.2 302 L 104 302 L 103.80000000000001 302 L 103.60000000000001 302 L 103.4 302 L 103.2 302 L 103 302 L 102.80000000000001 302 L 102.80000000000001 301.8 L 102.60000000000001 301.8 L 102.4 301.8 L 102.2 301.6 L 102 301.40000000000003 L 101.80000000000001 301.2 L 101.80000000000001 301 L 101.60000000000001 300.8 L 101.4 300.6 L 101.4 300.40000000000003 L 101.2 300 L 101 299.8 L 100.80000000000001 299.40000000000003 L 100.80000000000001 298.8 L 100.60000000000001 298.40000000000003 L 100.4 297.8 L 100.4 297.2 L 100.2 296.6 L 100 295.8 L 99.80000000000001 295.2 L 99.80000000000001 294.40000000000003 L 99.60000000000001 293.6 L 99.4 292.8 L 99.4 291.8 L 99.2 291 L 99 290.2 L 99 289.2 L 98.80000000000001 288.40000000000003 L 98.60000000000001 287.6 L 98.4 287 L 98.4 286.2 L 98.2 285.6 L 98 285.2 L 98 284.6 L 97.80000000000001 284.40000000000003 L 97.60000000000001 284.2 L 97.4 284 L 97.2 284.2 L 97 284.40000000000003 L 97 284.6 L 96.80000000000001 285.2 L 96.60000000000001 285.6 L 96.4 286.2 L 96.4 287 L 96.2 287.6 L 96 288.40000000000003 L 96 289.2 L 95.80000000000001 290.2 L 95.60000000000001 291 L 95.60000000000001 291.8 L 95.4 292.8 L 95.2 293.6 L 95 294.40000000000003 L 95 295.2 L 94.80000000000001 295.8 L 94.60000000000001 296.6 L 94.60000000000001 297.2 L 94.4 297.8 L 94.2 298.40000000000003 L 94 298.8 L 94 299.40000000000003 L 93.80000000000001 299.8 L 93.60000000000001 300 L 93.60000000000001 300.40000000000003 L 93.4 300.6 L 93.2 300.8 L 93 301.2 L 92.80000000000001 301.40000000000003 L 92.60000000000001 301.6 L 92.4 301.8 L 92.2 301.8 L 92 302 L 91.80000000000001 302 L 91.60000000000001 302 L 91.4 302 L 91.2 302 L 91 302 L 90.80000000000001 302 L 90.60000000000001 302 L 90.4 302 L 90.2 302 L 90 302 L 89.80000000000001 302 L 89.60000000000001 302 L 89.4 302 L 89.2 302 L 89 302 L 88.80000000000001 302 L 88.60000000000001 302 L 88.4 302 L 88.2 302 L 88 302 L 87.80000000000001 302 L 87.60000000000001 302 L 87.4 302 L 87.2 302 L 87 302 L 86.80000000000001 302 L 86.60000000000001 302 L 86.4 302 L 86.2 302 L 86 302 L 85.80000000000001 302 L 85.60000000000001 302 L 85.4 302 L 85.2 302 L 85 302 L 84.80000000000001 302 L 84.60000000000001 302 L 84.4 302 L 84.2 302 L 84 302 L 83.80000000000001 302 L 83.60000000000001 302 L 83.4 302 L 83.2 302 L 83 302 L 82.80000000000001 302 L 82.60000000000001 302 L 82.4 302 L 82.2 302 L 82 302 L 81.80000000000001 302 L 81.60000000000001 302 L 81.4 302 L 81.2 302 L 81 302 L 80.80000000000001 302 L 80.60000000000001 302 L 80.4 302 L 80.2 302 L 80 302 L 79.80000000000001 302 L 79.60000000000001 302 L 79.4 302 L 79.2 302 L 79 302 L 78.80000000000001 302 L 78.60000000000001 302 L 78.4 302 L 78.2 302 L 78 302 L 77.80000000000001 302 L 77.60000000000001 302 L 77.4 302 L 77.2 302 L 77 302 L 76.80000000000001 302 L 76.60000000000001 302 L 76.4 302 L 76.2 302 L 76 302 L 75.8 302 L 75.60000000000001 302 L 75.4 302 L 75.2 302 L 75 302 L 74.8 302 L 74.60000000000001 302 L 74.4 302 L 74.2 302 L 74 302 L 73.8 302 L 73.60000000000001 302 L 73.4 302 L 73.2 302 L 73 302 L 72.8 302 L 72.60000000000001 302 L 72.4 302 L 72.2 302 L 72 302 L 71.8 302 L 71.60000000000001 302 L 71.4 302 L 71.2 302 L 71 302 L 70.8 302 L 70.60000000000001 302 L 70.4 302 L 70.2 302 L 70 302 L 69.8 302 L 69.60000000000001 302 L 69.4 302 L 69.2 302 L 69 302 L 68.8 302 L 68.60000000000001 302 L 68.4 302 L 68.2 302 L 68 302 L 67.8 302 L 67.60000000000001 302 L 67.4 302 L 67.2 302 L 67 302 L 66.8 302 L 66.60000000000001 302 L 66.4 302 L 66.2 302 L 66 302 L 65.8 302 L 65.60000000000001 302 L 65.4 302 L 65.2 302 L 65 302 L 64.8 302 L 64.60000000000001 302 L 64.4 302 L 64.2 302 L 64 302 L 63.800000000000004 302 L 63.6 302 L 63.400000000000006 302 L 63.2 302 L 63 302 L 62.800000000000004 302 L 62.6 302 L 62.400000000000006 302 L 62.2 302 L 62 302 L 61.800000000000004 302 L 61.6 302 L 61.400000000000006 302 L 61.2 302 L 61 302 L 60.800000000000004 302 L 60.6 302 L 60.400000000000006 302 L 60.2 302 L 60 302 L 59.800000000000004 302 L 59.6 302 L 59.400000000000006 302 L 59.2 302 L 59 302 L 58.800000000000004 302 L 58.6 302 L 58.400000000000006 302 L 58.2 302 L 58 302 L 57.800000000000004 302 L 57.6 302 L 57.400000000000006 302 L 57.2 302 L 57 302 L 56.800000000000004 302 L 56.6 302 L 56.400000000000006 302 L 56.2 302 L 56 302 L 55.800000000000004 302 L 55.6 302 L 55.400000000000006 302 L 55.2 302 L 55 302 L 54.800000000000004 302 L 54.6 302 L 54.400000000000006 302 L 54.2 302 L 54 302 L 53.800000000000004 302 L 53.6 302 L 53.400000000000006 302 L 53.2 302 L 53 302 L 52.800000000000004 302 L 52.6 302 L 52.400000000000006 302 L 52.2 302 L 52 302 L 51.800000000000004 302 L 51.6 302 L 51.400000000000006 302 L 51.2 302 L 51 302 L 50.800000000000004 302 L 50.6 302 L 50.400000000000006 302 L 50.2 302 L 50 302 L 49.800000000000004 302 L 49.6 302 L 49.400000000000006 302 L 49.2 302 L 49 302 L 48.800000000000004 302 L 48.6 302 L 48.400000000000006 302 L 48.2 302 L 48 302 L 47.800000000000004 302 L 47.6 302 L 47.400000000000006 302 L 47.2 302 L 47 302 L 46.800000000000004 302 L 46.6 302 L 46.400000000000006 302 L 46.2 302 L 46 302 L 45.800000000000004 302 L 45.6 302 L 45.400000000000006 302 L 45.2 302 L 45 302 L 44.800000000000004 302 L 44.6 302 L 44.400000000000006 302 L 44.2 302 L 44 302 L 43.800000000000004 302 L 43.6 302 L 43.400000000000006 302 L 43.2 302 L 43 302 L 42.800000000000004 302 L 42.6 302 L 42.400000000000006 302 L 42.2 302 L 42 302 L 41.800000000000004 302 L 41.6 302 L 41.400000000000006 302 L 41.2 302 L 41 302 L 40.800000000000004 302 L 40.6 302 L 40.400000000000006 302 L 40.2 302 L 40 302 L 39.800000000000004 302 L 39.6 302 L 39.400000000000006 302 L 39.2 302 L 39 302 L 38.800000000000004 302 L 38.6 302 L 38.400000000000006 302 L 38.2 302 L 38 302 L 37.800000000000004 302 L 37.6 302 L 37.4 302 L 37.2 302 L 37 302 L 36.800000000000004 302 L 36.6 302 L 36.4 302 L 36.2 302 L 36 302 L 35.800000000000004 302 L 35.6 302 L 35.4 302 L 35.2 302 L 35 302 L 34.800000000000004 302 L 34.6 302 L 34.4 302 L 34.2 302 L 34 302 L 33.800000000000004 302 L 33.6 302 L 33.4 302 L 33.2 302 L 33 302 L 32.800000000000004 302 L 32.6 302 L 32.4 302 L 32.2 302 L 32 302 L 31.8 302 L 31.6 302 L 31.400000000000002 302 L 31.200000000000003 302 L 31 302 L 30.8 302 L 30.6 302 L 30.400000000000002 302 L 30.200000000000003 302 L 30 302 L 29.8 302 L 29.6 302 L 29.400000000000002 302 L 29.200000000000003 302 L 29 302 L 28.8 302 L 28.6 302 L 28.400000000000002 302 L 28.200000000000003 302 L 28 302 L 27.8 302 L 27.6 302 L 27.400000000000002 302 L 27.200000000000003 302 L 27 302 L 26.8 302 L 26.6 302 L 26.400000000000002 302 L 26.200000000000003 302 L 26 302 L 25.8 302 L 25.6 302 L 25.400000000000002 302 L 25.200000000000003 302 L 25 302 L 24.8 302 L 24.6 302 L 24.400000000000002 302 L 24.200000000000003 302 L 24 302 L 23.8 302 L 23.6 302 L 23.400000000000002 302 L 23.200000000000003 302 L 23 302 L 22.8 302 L 22.6 302 L 22.400000000000002 302 L 22.200000000000003 302 L 22 302 L 21.8 302 L 21.6 302 L 21.400000000000002 302 L 21.200000000000003 302 L 21 302 L 20.8 302 L 20.6 302 L 20.400000000000002 302 L 20.200000000000003 302 L 20 302 L 19.8 302 L 19.6 302 L 19.400000000000002 302 L 19.200000000000003 302 L 19 302 L 18.8 302 L 18.6 302 L 18.400000000000002 302 L 18.2 302 L 18 302 L 17.8 302 L 17.6 302 L 17.400000000000002 302 L 17.2 302 L 17 302 L 16.8 302 L 16.6 302 L 16.400000000000002 302 L 16.2 302 L 16 302 L 15.8 302 L 15.600000000000001 302 L 15.4 302 L 15.200000000000001 302 L 15 302 L 14.8 302 L 14.600000000000001 302 L 14.4 302 L 14.200000000000001 302 L 14 302 L 13.8 302 L 13.600000000000001 302 L 13.4 302 L 13.200000000000001 302 L 13 302 L 12.8 302 L 12.600000000000001 302 L 12.4 302 L 12.200000000000001 302 L 12 302 L 11.8 302 L 11.600000000000001 302 L 11.4 302 L 11.200000000000001 302 L 11 302 L 10.8 302 L 10.600000000000001 302 L 10.4 302 L 10.200000000000001 302 L 10 302 L 9.8 302 L 9.600000000000001 302 L 9.4 302 L 9.200000000000001 302 L 9 302 L 8.8 302 L 8.6 302 L 8.4 302 L 8.200000000000001 302 L 8 302 L 7.800000000000001 302 L 7.6000000000000005 302 L 7.4 302 L 7.2 302 L 7 302 L 6.800000000000001 302 L 6.6000000000000005 302 L 6.4 302 L 6.2 302 L 6 302 L 5.800000000000001 302 L 5.6000000000000005 302 L 5.4 302 L 5.2 302 L 5 302 L 4.800000000000001 302 L 4.6000000000000005 302 L 4.4 302 L 4.2 302 L 4 302 L 3.8000000000000003 302 L 3.6 302 L 3.4000000000000004 302 L 3.2 302 L 3 302 L 2.8000000000000003 302 L 2.6 302 L 2.4000000000000004 302 L 2.2 302 L 2 302 L 1.8 302 L 1.6 302 L 1.4000000000000001 302 L 1.2000000000000002 302 L 1 302 L 0.8 302 L 0.6000000000000001 302 L 0.4 302 L 0.2 302 L 0 302 L 0 302 "/></g><circle fill="black" r="3" display="none"/><g/><rect fill="white"/><text/></g></g><g><g clip-path="url(#_clipplotbb1ef53c-d847-4554-82d3-fb1e7c440ddf)"><rect data-label-i="0" display="initial"/><text data-label-i="0" display="initial"/></g><g clip-path="url(#_clipplotbb1ef53c-d847-4554-82d3-fb1e7c440ddf)"><rect data-label-i="0" display="initial"/><text data-label-i="0" display="initial"/></g><g clip-path="url(#_clipplotbb1ef53c-d847-4554-82d3-fb1e7c440ddf)"><rect data-label-i="0" display="initial"/><text data-label-i="0" display="initial"/></g><g clip-path="url(#_clipplotbb1ef53c-d847-4554-82d3-fb1e7c440ddf)"><rect data-label-i="0" display="initial"/><text data-label-i="0" display="initial"/></g><g clip-path="url(#_clipplotbb1ef53c-d847-4554-82d3-fb1e7c440ddf)"><rect fill="green" stroke="red" stroke-width="1px" width="19.211956615002237" height="5" x="2633.119835783271" y="0"/><rect data-label-i="0" display="initial" x="2633.375" y="19" width="19.03125" height="14" fill="transparent" fill-opacity="1"/><text data-label-i="0" display="initial" x="2642.7258140907725" y="30" dominant-baseline="no-change" fill="red" font-size="11pxpx" text-anchor="middle" stroke="black" stroke-width="0px" stroke-location="outside">3.0</text></g><g clip-path="url(#_clipplotbb1ef53c-d847-4554-82d3-fb1e7c440ddf)"><rect fill="green" stroke="red" stroke-width="1px" width="18.737717422641254" height="5" x="2339.539429089674" y="0"/><rect data-label-i="0" display="initial" x="2339.5625" y="19" width="19.015625" height="14" fill="transparent" fill-opacity="1"/><text data-label-i="0" display="initial" x="2348.908287800994" y="30" dominant-baseline="no-change" fill="red" font-size="11pxpx" text-anchor="middle" stroke="black" stroke-width="0px" stroke-location="outside">3.0</text></g><g clip-path="url(#_clipplotbb1ef53c-d847-4554-82d3-fb1e7c440ddf)"><rect fill="green" stroke="red" stroke-width="1px" width="19.211956615002237" height="5" x="1373.5405408709953" y="0"/><rect data-label-i="0" display="initial" x="1373.796875" y="19" width="19.03125" height="14" fill="transparent" fill-opacity="1"/><text data-label-i="0" display="initial" x="1383.1465191784964" y="30" dominant-baseline="no-change" fill="red" font-size="11pxpx" text-anchor="middle" stroke="black" stroke-width="0px" stroke-location="outside">2.0</text></g><g clip-path="url(#_clipplotbb1ef53c-d847-4554-82d3-fb1e7c440ddf)"><rect fill="green" stroke="red" stroke-width="1px" width="37.42063387194207" height="5" x="563.9204455362294" y="0"/><rect data-label-i="0" display="initial" x="573.28125" y="19" width="19.03125" height="14" fill="transparent" fill-opacity="1"/><text data-label-i="0" display="initial" x="582.6307624722004" y="30" dominant-baseline="no-change" fill="red" font-size="11pxpx" text-anchor="middle" stroke="black" stroke-width="0px" stroke-location="outside">1.0</text></g><g clip-path="url(#_clipplotbb1ef53c-d847-4554-82d3-fb1e7c440ddf)"><rect fill="green" stroke="red" stroke-width="1px" width="51.942891806924536" height="5" x="151.1321138560171" y="0"/><rect data-label-i="0" display="initial" x="167.75" y="19" width="19.03125" height="14" fill="transparent" fill-opacity="1"/><text data-label-i="0" display="initial" x="177.10355975947948" y="30" dominant-baseline="no-change" fill="red" font-size="11pxpx" text-anchor="middle" stroke="black" stroke-width="0px" stroke-location="outside">1.0</text></g></g></g></g><line stroke="black" shape-rendering="crispEdges" stroke-linecap="square" display="none"/><line stroke="black" shape-rendering="crispEdges" stroke-linecap="square" display="none"/><line stroke="black" shape-rendering="crispEdges" stroke-linecap="square" display="none"/><line stroke="black" shape-rendering="crispEdges" stroke-linecap="square" display="none"/></g><g><rect display="none" fill="rgba(171,12,12,0.2)" stroke="rgba(171,12,12,1)" shape-rendering="crispEdges" x="77" y="30" height="315.92432403564453" width="215" pointer-events="none"/></g></g><g display="block" transform="translate(359, 387.92432403564453)"><rect x="-5" y="-8" stroke="rgba( 100, 100, 100, 0.5 )" stroke-width="1px" rx="0" ry="0" fill="rgba( 255, 255, 255, 0.8 )" width="171.734375" height="37.07567596435547"/><symbol id="9b37018e-7910-403d-af70-872d5992d9b1" viewBox="0 -256 1850 1850"><rect pointer-events="fill" x="-256" y="0" fill="transparent" width="2106" height="1850"/><g transform="matrix(1,0,0,-1,30.372881,1259.8983)"><path d="m 1664,576 q -152,236 -381,353 61,-104 61,-225 0,-185 -131.5,-316.5 Q 1081,256 896,256 711,256 579.5,387.5 448,519 448,704 448,825 509,929 280,812 128,576 261,371 461.5,249.5 662,128 896,128 1130,128 1330.5,249.5 1531,371 1664,576 z M 944,960 q 0,20 -14,34 -14,14 -34,14 -125,0 -214.5,-89.5 Q 592,829 592,704 q 0,-20 14,-34 14,-14 34,-14 20,0 34,14 14,14 14,34 0,86 61,147 61,61 147,61 20,0 34,14 14,14 14,34 z m 848,-384 q 0,-34 -20,-69 Q 1632,277 1395.5,138.5 1159,0 896,0 633,0 396.5,139 160,278 20,507 0,542 0,576 q 0,34 20,69 140,229 376.5,368 236.5,139 499.5,139 263,0 499.5,-139 236.5,-139 376.5,-368 20,-35 20,-69 z" fill="#444444"/></g></symbol><symbol id="9d8ed676-dce2-4aca-8253-083d34b6c8a8" viewBox="0 -256 1850 1850"><rect pointer-events="fill" fill="transparent" x="-256" y="0" width="2106" height="1850"/><g transform="matrix(1,0,0,-1,30.372881,1214.339)"><path d="m 555,201 78,141 q -87,63 -136,159 -49,96 -49,203 0,121 61,225 Q 280,812 128,576 295,318 555,201 z m 389,759 q 0,20 -14,34 -14,14 -34,14 -125,0 -214.5,-89.5 Q 592,829 592,704 q 0,-20 14,-34 14,-14 34,-14 20,0 34,14 14,14 14,34 0,86 61,147 61,61 147,61 20,0 34,14 14,14 14,34 z m 363,191 q 0,-7 -1,-9 Q 1201,954 991,576 781,198 675,9 l -49,-89 q -10,-16 -28,-16 -12,0 -134,70 -16,10 -16,28 0,12 44,87 Q 349,154 228.5,262 108,370 20,507 0,538 0,576 q 0,38 20,69 153,235 380,371 227,136 496,136 89,0 180,-17 l 54,97 q 10,16 28,16 5,0 18,-6 13,-6 31,-15.5 18,-9.5 33,-18.5 15,-9 31.5,-18.5 16.5,-9.5 19.5,-11.5 16,-10 16,-27 z m 37,-447 Q 1344,565 1265,450.5 1186,336 1056,286 l 280,502 q 8,-45 8,-84 z m 448,-128 q 0,-35 -20,-69 Q 1733,443 1663,362 1513,190 1315.5,95 1118,0 896,0 l 74,132 q 212,18 392.5,137 180.5,119 301.5,307 -115,179 -282,294 l 63,112 q 95,-64 182.5,-153 87.5,-89 144.5,-184 20,-34 20,-69 z" fill="#c0c0c0"/></g></symbol><g><g transform="translate( 0, 10)"><rect x="5" y="-8" width="151.734375" height="17.07567596435547" fill="none" pointer-events="fill"/><g><line stroke="rgba(0,0,0,1)" stroke-width="1" fill="none" x1="5" x2="25" y1="0" y2="0" cursor="pointer"/></g><use xlink:href="#9b37018e-7910-403d-af70-872d5992d9b1" width="15" height="15" x="35" y="-8"/><text cursor="pointer" transform="translate(55, 3)" fill="black">predictedSpectrum</text></g></g><rect x="0" y="0" width="171.734375" height="37.07567596435547" fill="none" pointer-events="fill" display="none"/></g></svg>